<svg xmlns="http://www.w3.org/2000/svg" xmlns:xlink="http://www.w3.org/1999/xlink" viewBox="0 0 228 119" version="1.1">
    <!-- Generator: Sketch 46.2 (44496) - http://www.bohemiancoding.com/sketch -->
    <title>empty</title>
    <desc>Created with Sketch.</desc>
    <defs/>
    <g id="Component" stroke="none" stroke-width="1" fill="none" fill-rule="evenodd">
        <g id="Artboard-2" transform="translate(-506.000000, -182.000000)">
            <g id="empty" transform="translate(495.000000, 160.000000)">
                <rect id="Rectangle-" fill-opacity="0" fill="#D8D8D8" x="0" y="0" width="250" height="167"/>
                <g id="Mountain2" transform="translate(125.000000, 105.490000) scale(-1, 1) translate(-125.000000, -105.490000) translate(12.500000, 78.490000)">
                    <g id="Mountain2LightBlue">
                        <path d="M0,52.1875 L225,52.1875" id="HorizonLine3" stroke="#C2E8FF" stroke-width="2.5" stroke-linecap="round"/>
                        <polyline id="Mountain2Line4" stroke="#C2E8FF" stroke-width="2.5" stroke-linecap="round" stroke-linejoin="round" points="26.6666667 51.77 89.5833333 0 137.916667 37.6779452"/>
                        <polyline id="Mountain2Line1" stroke="#C2E8FF" stroke-width="2.5" stroke-linecap="round" stroke-linejoin="round" points="123.333333 25.8377358 137.916667 13.36 185 51.77"/>
                        <path d="M31.5786642,31.7043903 L34.4938151,45.4487891 L24.5442708,53.1431836 L29.955402,31.6736297 L29.955402,31.6736297 C30.0678815,31.2273487 30.5208464,30.9567491 30.9671274,31.0692286 C31.275457,31.1469392 31.5126909,31.3933379 31.5786642,31.7043903 Z" id="Mountain2Tree3" fill="#C2E8FF"/>
                        <path d="M114.969253,7.88211266 L120,25.885 L110.641848,17.6238141 L113.36408,7.88211266 L113.36408,7.88211266 C113.487944,7.43885645 113.947686,7.17993791 114.390942,7.30380192 C114.671557,7.38221707 114.890838,7.60149845 114.969253,7.88211266 Z" id="Mountain2Tree2" fill="#C2E8FF"/>
                        <path d="M35.8053024,35.3696307 L37.8559487,43.0749341 L34.8543294,44.8687069 L31.6666667,44.8687069 L34.1946976,35.3696307 L34.1946976,35.3696307 C34.3130625,34.9248744 34.7695624,34.660282 35.2143187,34.7786469 C35.5030005,34.8554751 35.7284742,35.0809489 35.8053024,35.3696307 Z" id="Mountain2Tree1" fill="#C2E8FF"/>
                    </g>
                </g>
                <g id="Tree3" transform="translate(70.416667, 88.092500)">
                    <g id="Tree3LightBlue" fill="#C2E8FF">
                        <path d="M15.7677463,1.63272401 L27.7175591,42.9603843 L27.7175591,42.9603843 C27.9732388,43.8446361 27.4636804,44.7687332 26.5794285,45.024413 C26.4289607,45.0679204 26.2731111,45.09 26.1164795,45.09 L2.21685387,45.09 L2.21685387,45.09 C1.29637929,45.09 0.550187208,44.3438079 0.550187208,43.4233333 C0.550187208,43.2667017 0.572266783,43.1108521 0.615774258,42.9603843 L12.565587,1.63272401 L12.565587,1.63272401 C12.8212668,0.748472155 13.7453639,0.23891375 14.6296157,0.494593459 C15.1791796,0.653498793 15.6088409,1.08316011 15.7677463,1.63272401 Z" id="Tree3LightBluebkgd"/>
                    </g>
                    <g id="Tree3DarkBlue" stroke="#8CD3F8" stroke-width="2.5" stroke-linecap="round">
                        <polygon id="Tree3DarkBlueOutline1" stroke-linejoin="round" points="14.1666667 0.270492958 28.3333333 45.09 -1.81721305e-12 45.09"/>
                        <path d="M14.1666667,3.08558594 C14.1666667,35.1081006 14.1666667,51.4754053 14.1666667,52.1875 C14.1666667,51.4754053 14.1666667,35.1081006 14.1666667,3.08558594 Z" id="Tree3DarkBlueLine2"/>
                        <path d="M14.1666667,24.485493 C18.6111111,29.8806095 20.8333333,32.6639429 20.8333333,32.835493 C20.8333333,32.6639429 18.6111111,29.8806095 14.1666667,24.485493 Z" id="Tree3DarkBlueLine1" stroke-linejoin="round" transform="translate(17.500000, 28.660493) scale(-1, 1) translate(-17.500000, -28.660493) "/>
                    </g>
                </g>
                <g id="Tree1" transform="translate(34.166667, 60.537500)">
                    <g id="Tree1LightBlue" transform="translate(0.833333, 0.000000)" fill="#C2E8FF">
                        <path d="M21.3732394,0 L42.4007414,70.5019791 L42.4007414,70.5019791 C42.6638246,71.3840566 42.1620306,72.3123927 41.2799531,72.5754759 C41.1253696,72.6215811 40.9649114,72.645 40.8035988,72.645 L1.94288005,72.645 L1.94288005,72.645 C1.02240547,72.645 0.276213382,71.8988079 0.276213382,70.9783333 C0.276213382,70.8170207 0.299632314,70.6565626 0.345737478,70.5019791 L21.3732394,0 Z" id="Tree1LightBlueBkgd"/>
                    </g>
                    <g id="Tree1DarkBlue" stroke="#8CD3F8" stroke-width="2.5" stroke-linecap="round">
                        <polygon id="Tree1DarkBlueOutine" stroke-linejoin="round" points="22.0833333 0 43.75 72.645 0.416666667 72.645"/>
                        <path d="M22.0833333,2.15966553 C22.0833333,52.6267963 22.0833333,78.4877412 22.0833333,79.7425 C22.0833333,78.4877412 22.0833333,52.6267963 22.0833333,2.15966553 Z" id="Tree1DarkBlueLine3"/>
                        <path d="M13.0399061,35.07 C19.1510172,40.9807079 22.2065728,44.0423745 22.2065728,44.255 C22.2065728,44.0423745 19.1510172,40.9807079 13.0399061,35.07 Z" id="Tree1DarkBlueLine2" stroke-linejoin="round"/>
                        <path d="M23.0399061,56.78 C30.8176839,47.6607079 34.7065728,43.2073745 34.7065728,43.42 C34.7065728,43.2073745 30.8176839,47.6607079 23.0399061,56.78 Z" id="Tree1DarkBlueLine1" stroke-linejoin="round"/>
                    </g>
                </g>
                <g id="Tree2" transform="translate(22.500000, 88.510000)">
                    <g id="Tree2LightBlue" transform="translate(18.333333, 0.000000)"/>
                    <g id="Tree2DarkBlue" stroke="#8CD3F8" stroke-width="2.5" stroke-linecap="round">
                        <path d="M0.416666667,50.935 L188.75,50.935" id="HorizonLine2"/>
                        <path d="M194.583333,50.935 L202.916667,50.935" id="HorizonLine1"/>
                    </g>
                </g>
                <g id="Balloon" transform="translate(145.416667, 23.380000)">
                    <g id="BalloonLightBlue" fill="#C2E8FF">
                        <ellipse id="BalloonOval2Bkgd" cx="27.5" cy="27.555" rx="27.5" ry="27.555"/>
                        <ellipse id="BalloonOval1Bkgd" cx="27.7083333" cy="27.555" rx="16.0416667" ry="27.555"/>
                        <rect id="BalloonBasketBkgd" x="20.625" y="64.08625" width="13.3333333" height="9.185"/>
                    </g>
                    <g id="BalloonWhite" transform="translate(1.666667, 0.835000)" fill="#FFFFFF">
                        <path d="M0.115356445,19.9476526 C1.96987576,15.058608 4.91916233,11.0696619 8.96321615,7.98081421 C12.5500488,5.34289917 14.8777262,3.79643677 20.0378418,2.87072021 C21.7213645,2.5686989 24.0464908,1.67420397 26.25,1.67 C28.3477666,1.66599777 30.3068511,2.5315316 32.6005486,3.05453392 C35.2822591,3.66600985 38.0061005,4.72337477 40.5574544,6.42701294 C47.5832113,11.1183838 49.1485596,14.8190076 51.6507975,19.9476526 C53.3189562,23.3667493 53.1846788,22.2572213 51.2479655,16.6190686 L47.9817708,11.0127856 L41.395874,4.94293091 L33.75,0.370001221 L24.258016,0.370001221 L17.0833333,0.835 L9.44539388,5.76692261 L2.68432617,12.5545593 L0.115356445,17.9661584 L0.115356445,19.9476526 Z" id="BalloonHighlight2"/>
                        <path d="M12.7061971,14.2156915 C12.7061971,14.2156915 15.5573527,7.11819153 19.9081421,4.14615417 C22.2957018,2.56109477 24.6664768,1.8848997 27.0204671,2.11756897 C28.8680013,2.2956724 30.8114624,3.15588277 32.8508504,4.69820007 C35.9099325,7.01167603 38.3894857,11.6053992 39.7631836,14.9580383 C40.6789822,17.1931311 40.1115248,15.2623975 38.0608114,9.1658374 C35.8044095,6.22267985 34.6002536,4.6928658 34.4483439,4.57639526 C34.2964342,4.45992472 32.938029,3.26695109 30.3731283,0.997474365 C28.6579553,0.371304165 27.3491556,0.0496851059 26.446729,0.0326171875 C25.5443025,0.0155492691 24.1890194,0.286781569 22.3808797,0.846314087 L19.0904744,3.24907959 L15.6086222,6.80679932 C13.9054023,9.64558187 12.9997084,11.1225629 12.8915405,11.2377423 C12.7292887,11.4105115 12.7061971,14.2156915 12.7061971,14.2156915 Z" id="BalloonHightlight1"/>
                    </g>
                    <ellipse id="BalloonOval2" stroke="#8CD3F8" stroke-width="2.5" stroke-linecap="round" stroke-linejoin="round" cx="27.5" cy="27.555" rx="27.5" ry="27.555"/>
                    <ellipse id="BalloonOval1" stroke="#8CD3F8" stroke-width="2.5" stroke-linecap="round" stroke-linejoin="round" cx="27.7083333" cy="27.555" rx="16.0416667" ry="27.555"/>
                    <g id="BalloonDarkBlue" transform="translate(10.416667, 49.682500)" stroke="#8CD3F8" stroke-width="2.5" stroke-linecap="round" stroke-linejoin="round">
                        <rect id="BalloonBasket" x="9.58333333" y="14.195" width="15" height="9.185"/>
                        <path d="M32.9262288,14.195 L23.75,0.805848389" id="BalloonString4" transform="translate(28.338114, 7.500424) scale(-1, 1) translate(-28.338114, -7.500424) "/>
                        <path d="M22.5,14.195 L19.5833333,5.01" id="BalloonString3" transform="translate(21.041667, 9.602500) scale(-1, 1) translate(-21.041667, -9.602500) "/>
                        <path d="M14.5833333,14.195 L11.6666667,5.01" id="BalloonString2"/>
                        <path d="M10.4166667,14.195 L0.486857096,0.0625842285" id="BalloonString1"/>
                    </g>
                </g>
            </g>
        </g>
    </g>
</svg>