<?xml version="1.0" encoding="UTF-8"?>
<svg width="237px" height="100px" viewBox="0 0 237 100" version="1.1" xmlns="http://www.w3.org/2000/svg" xmlns:xlink="http://www.w3.org/1999/xlink">
    <!-- Generator: Sketch 59.1 (86144) - https://sketch.com -->
    <title>Group</title>
    <desc>Created with Sketch.</desc>
    <g id="Page-1" stroke="none" stroke-width="1" fill="none" fill-rule="evenodd">
        <g id="Group" transform="translate(-13.000000, -22.000000)">
            <rect id="Rectangle" x="0" y="0" width="266" height="146"></rect>
            <g stroke-linecap="round" transform="translate(104.000000, 67.749000)" stroke="#C2E8FF" stroke-width="3">
                <path d="M22,8.79146919 L31.5,8.79146919 C31.1394857,6.06480614 32.0407715,3.78378292 34.2038574,1.94839955 C36.6877441,-0.0982417247 39.6367188,0.360587604 41.220459,1.06679965 C42.8041992,1.7730117 43.9803467,2.74328671 44.7956543,4.5741966 C45.1411133,5.34508018 45.3758952,5.99728321 45.5,6.53080569" id="Path"></path>
                <path d="M41.5,10.2985782 C42.0279134,8.46301559 43.1113688,7.26289664 44.7503662,6.69822136 C47.2088623,5.85120844 49.5400391,6.97920986 50.4711914,8.11420227 C51.4023438,9.24919468 51.6975098,10.1609662 51.873291,11.1124759 C51.9904785,11.7468158 52.0327148,12.4802559 52,13.3127962 L54.081543,13.3127962 C56.0183919,13.8295019 56.9937337,14.9811653 57.0077627,16.7677864 C57.0322678,19.9575033 54.6954577,20.7511848 53.5,20.7511848 L14,20.7511848 M9,14.7511848 L41.5002493,14.7511848 M0,14.7511848 L4,14.7511848" id="Shape"></path>
            </g>
            <g stroke-linecap="round" transform="translate(55.000000, 40.749000)" stroke="#C2E8FF" stroke-width="3">
                <path d="M22,8.79146919 L31.5,8.79146919 C31.1394857,6.06480614 32.0407715,3.78378292 34.2038574,1.94839955 C36.6877441,-0.0982417247 39.6367188,0.360587604 41.220459,1.06679965 C42.8041992,1.7730117 43.9803467,2.74328671 44.7956543,4.5741966 C45.1411133,5.34508018 45.3758952,5.99728321 45.5,6.53080569" id="Path"></path>
                <path d="M41.5,10.2985782 C42.0279134,8.46301559 43.1113688,7.26289664 44.7503662,6.69822136 C47.2088623,5.85120844 49.5400391,6.97920986 50.4711914,8.11420227 C51.4023438,9.24919468 51.6975098,10.1609662 51.873291,11.1124759 C51.9904785,11.7468158 52.0327148,12.4802559 52,13.3127962 L54.081543,13.3127962 C56.0183919,13.8295019 56.9937337,14.9811653 57.0077627,16.7677864 C57.0322678,19.9575033 54.6954577,20.7511848 53.5,20.7511848 L14,20.7511848 M9,14.7511848 L41.5002493,14.7511848 M0,14.7511848 L4,14.7511848" id="Shape"></path>
            </g>
            <g stroke-linecap="round" transform="translate(15.000000, 95.882000)" stroke="#C2E8FF" stroke-width="3">
                <path d="M8,18.6184834 L233,18.6184834 M0,18.6184834 L3,18.6184834" id="Shape"></path>
                <polyline id="Path" stroke-linejoin="round" points="118.25 18.085 140.5 0 157.5 13.062"></polyline>
                <path d="M140.5,0.502369668 L140.5,17.5829384 M157.75,5.52606635 C157.75,10.4210503 157.75,12.9328986 157.75,13.0616114 C157.75,12.9328986 157.75,10.4210503 157.75,5.52606635 Z" id="Shape" stroke-linejoin="round"></path>
                <polyline id="Path" stroke-linejoin="round" points="152.75 8.54 157.75 4.521 174.75 18.085"></polyline>
            </g>
            <g transform="translate(38.000000, 55.000000)">
                <g transform="translate(14.000000, 5.000000)" fill="#C2E8FF" fill-rule="nonzero" id="Path">
                    <path d="M15.5,30.5 L15.5,6 C15.5,2.6862915 18.1862915,0 21.5,0 C24.8137085,0 27.5,2.6862915 27.5,6 L27.5,21.5 L35.5,21.5 L35.5,14.7630332 C35.5,12.5538942 37.290861,10.7630332 39.5,10.7630332 C41.709139,10.7630332 43.5,12.5538942 43.5,14.7630332 L43.5,26.5 C43.5,28.1568542 42.1568542,29.5 40.5,29.5 L27.5,29.5 L27.5,59.5 C27.5,60.0522847 27.0522847,60.5 26.5,60.5 L16.5,60.5 C15.9477153,60.5 15.5,60.0522847 15.5,59.5 L15.5,38.5 L3.5,38.5 C1.84314575,38.5 0.5,37.1568542 0.5,35.5 L0.5,20.7914692 C0.5,18.5823302 2.290861,16.7914692 4.5,16.7914692 C6.709139,16.7914692 8.5,18.5823302 8.5,20.7914692 L8.5,30.5 L15.5,30.5 Z"></path>
                    <path d="M24.5,41.5 L32.5,41.5 L32.5,37.3720379 L32.5,37.3720379 C32.5,35.4390413 34.0670034,33.8720379 36,33.8720379 L36,33.8720379 L36,33.8720379 C37.9329966,33.8720379 39.5,35.4390413 39.5,37.3720379 L39.5,45.5 L39.5,45.5 C39.5,47.1568542 38.1568542,48.5 36.5,48.5 L24.5,48.5"></path>
                </g>
                <g stroke="#8CD3F8" stroke-width="3">
                    <path d="M0,65.5 L178,65.5 M183.25,65.5 L188.026243,65.5 M39,46.4960938 L44,46.4960938 M39,53.4960938 L44,53.4960938" id="Shape" stroke-linecap="round"></path>
                    <path d="M41.5,46.5 L41.5,34.5 L54.5,34.5 C56.1568542,34.5 57.5,33.1568542 57.5,31.5 L57.5,19.7630332 C57.5,17.5538942 55.709139,15.7630332 53.5,15.7630332 C51.290861,15.7630332 49.5,17.5538942 49.5,19.7630332 L49.5,26.5 L41.5,26.5 L41.5,11 C41.5,7.6862915 38.8137085,5 35.5,5 C32.1862915,5 29.5,7.6862915 29.5,11 L29.5,35.5 L22.5,35.5 L22.5,25.7914692 C22.5,23.5823302 20.709139,21.7914692 18.5,21.7914692 C16.290861,21.7914692 14.5,23.5823302 14.5,25.7914692 L14.5,40.5 C14.5,42.1568542 15.8431458,43.5 17.5,43.5 L29.5,43.5 L29.5,64.5 C29.5,65.0522847 29.9477153,65.5 30.5,65.5 L40.5,65.5 C41.0522847,65.5 41.5,65.0522847 41.5,64.5 L41.5,53.5 L50.5,53.5 C52.1568542,53.5 53.5,52.1568542 53.5,50.5 L53.5,42.3720379 C53.5,40.4390413 51.9329966,38.8720379 50,38.8720379 C48.0670034,38.8720379 46.5,40.4390413 46.5,42.3720379 L46.5,46.5 L41.5,46.5 Z" id="Path"></path>
                    <line x1="39.5" y1="5.55273247" x2="42.3284271" y2="2.71090047" id="Path" stroke-linecap="round"></line>
                    <line x1="28.4995729" y1="5.55273247" x2="31.328" y2="2.71090047" id="Path" stroke-linecap="round" transform="translate(29.913786, 4.131816) scale(-1, 1) translate(-29.913786, -4.131816) "></line>
                    <path d="M35.5,0.199052133 L35.5,4.21800948 M53.5,11.7440758 L53.5,15.7630332 M56.5,16.0977562 L59.3284271,13.2559242 M18.5,17.7725118 L18.5,21.7914692 M22,23.1261922 L24.8284271,20.2843602" id="Shape" stroke-linecap="round"></path>
                    <line x1="12.4995729" y1="23.1261922" x2="15.328" y2="20.2843602" id="Path" stroke-linecap="round" transform="translate(13.913786, 21.705276) scale(-1, 1) translate(-13.913786, -21.705276) "></line>
                </g>
            </g>
            <g stroke-linecap="round" transform="translate(196.000000, 88.848000)" id="Path" stroke="#C2E8FF" stroke-width="3">
                <line x1="6.5" y1="2.00947867" x2="6.5" y2="25.1184834"></line>
                <polyline stroke-linejoin="round" points="5.5 9.652 0.5 9.652 0.5 0.152"></polyline>
                <polyline stroke-linejoin="round" points="7 12.652 12.5 12.652 12.5 4.152"></polyline>
                <polyline stroke-linejoin="round" points="1.5 15.652 1.5 19.652 5.5 19.652"></polyline>
            </g>
            <g transform="translate(144.000000, 15.000000)">
                <g stroke-linecap="round" stroke-linejoin="round" id="Oval" stroke="#C2E8FF" stroke-width="3">
                    <path d="M32.78,54.374 C45.2064069,54.374 55.28,44.2525013 55.28,31.767 C55.28,19.2814987 45.2064069,9.16 32.78,9.16 C20.3535931,9.16 10.28,19.2814987 10.28,31.767 C10.28,44.2525013 20.3535931,54.374 32.78,54.374 Z" stroke-dasharray="67.5" transform="translate(32.780000, 31.767000) rotate(-130.000000) translate(-32.780000, -31.767000) "></path>
                    <path d="M32.579,48.185 C41.6916984,48.185 49.079,40.7627766 49.079,31.607 C49.079,22.4512234 41.6916984,15.029 32.579,15.029 C23.4663016,15.029 16.079,22.4512234 16.079,31.607 C16.079,40.7627766 23.4663016,48.185 32.579,48.185 Z" stroke-dasharray="53.5" transform="translate(32.579000, 31.607000) rotate(150.000000) translate(-32.579000, -31.607000) "></path>
                </g>
                <g transform="translate(20.000000, 19.000000)">
                    <g id="desertsmall-a-link" fill="#C2E8FF" fill-rule="nonzero">
                        <ellipse id="desertsmall-a" cx="12.5" cy="12.559" rx="12.5" ry="12.559"></ellipse>
                    </g>
                    <ellipse id="Oval" stroke="#8CD3F8" stroke-width="3" cx="12.5" cy="12.559" rx="11" ry="11.059"></ellipse>
                </g>
            </g>
        </g>
    </g>
</svg>