<?xml version="1.0" encoding="UTF-8"?>
<svg width="184px" height="140px" viewBox="0 0 184 140" version="1.1" xmlns="http://www.w3.org/2000/svg" xmlns:xlink="http://www.w3.org/1999/xlink">
    <!-- Generator: Sketch 59.1 (86144) - https://sketch.com -->
    <title>Maintenance</title>
    <desc>Created with Sketch.</desc>
    <g id="Symbols" stroke="none" stroke-width="1" fill="none" fill-rule="evenodd">
        <g id="Maintenance" transform="translate(-58.000000, -35.000000)">
            <rect id="Rectangle-" fill-opacity="0" fill="#D8D8D8" x="0" y="0" width="300" height="200"></rect>
            <g id="Cloud1" transform="translate(60.000000, 67.748815)" stroke="#C2E8FF" stroke-linecap="round" stroke-width="3">
                <g id="Cloud1LightBlue">
                    <path d="M22,8.79146919 L31.5,8.79146919 C31.1394857,6.06480614 32.0407715,3.78378292 34.2038574,1.94839955 C36.6877441,-0.0982417247 39.6367188,0.360587604 41.220459,1.06679965 C42.8041992,1.7730117 43.9803467,2.74328671 44.7956543,4.5741966 C45.1411133,5.34508018 45.3758952,5.99728321 45.5,6.53080569" id="Cloud1LightBlueLine4"></path>
                    <path d="M41.5,10.2985782 C42.0279134,8.46301559 43.1113688,7.26289664 44.7503662,6.69822136 C47.2088623,5.85120844 49.5400391,6.97920986 50.4711914,8.11420227 C51.4023438,9.24919468 51.6975098,10.1609662 51.873291,11.1124759 C51.9904785,11.7468158 52.0327148,12.4802559 52,13.3127962 L54.081543,13.3127962 C56.0183919,13.8295019 56.9937985,14.9811653 57.0077626,16.7677864 C57.0322678,19.9575033 54.6954577,20.7511848 53.5,20.7511848 L14,20.7511848" id="Cloud1LightBlueLine3"></path>
                    <line x1="9" y1="14.7511848" x2="41.5002493" y2="14.7511848" id="Cloud1LightBlueLine2"></line>
                    <line x1="0" y1="14.7511848" x2="4" y2="14.7511848" id="Cloud1LightBlueLine1"></line>
                </g>
            </g>
            <g id="Cloud2" transform="translate(183.000000, 84.748815)" stroke="#C2E8FF" stroke-linecap="round" stroke-width="3">
                <g id="Cloud2LightBlue">
                    <path d="M22,8.79146919 L31.5,8.79146919 C31.1394857,6.06480614 32.0407715,3.78378292 34.2038574,1.94839955 C36.6877441,-0.0982417247 39.6367188,0.360587604 41.220459,1.06679965 C42.8041992,1.7730117 43.9803467,2.74328671 44.7956543,4.5741966 C45.1411133,5.34508018 45.3758952,5.99728321 45.5,6.53080569" id="Cloud2LightBlueLine4"></path>
                    <path d="M41.5,10.2985782 C42.0279134,8.46301559 43.1113688,7.26289664 44.7503662,6.69822136 C47.2088623,5.85120844 49.5400391,6.97920986 50.4711914,8.11420227 C51.4023438,9.24919468 51.6975098,10.1609662 51.873291,11.1124759 C51.9904785,11.7468158 52.0327148,12.4802559 52,13.3127962 L54.081543,13.3127962 C56.0183919,13.8295019 56.9937985,14.9811653 57.0077626,16.7677864 C57.0322678,19.9575033 54.6954577,20.7511848 53.5,20.7511848 L14,20.7511848" id="Cloud2LightBlueLine3"></path>
                    <line x1="9" y1="14.7511848" x2="41.5002493" y2="14.7511848" id="Cloud2LightBlueLine2"></line>
                    <line x1="0" y1="14.7511848" x2="4" y2="14.7511848" id="Cloud2LightBlueLine1"></line>
                </g>
            </g>
            <g id="Mountains" transform="translate(121.500000, 86.500000)">
                <g id="MountainsWhite" transform="translate(58.500000, 6.000000)" fill="#FFFFFF">
                    <polygon id="MountainsCover" points="0.4296875 1.92675781 6.78062124 5.02459144 12.0410156 0 29.703125 17.2304687 3 17.2304688"></polygon>
                </g>
                <g id="MountiansLightBlue">
                    <path d="M29.5,65.1673566 C33.6432292,66.5417055 39.2682292,63.7780336 46.375,56.8763409 C53.4817708,49.9746482 61.9609375,41.6816795 71.8125,31.9974347 C76.3059896,28.2462404 80.8789062,27.5125704 85.53125,29.7964245 C90.1835938,32.0802787 89.8639323,35.3513836 84.5722656,39.6097394 L61.8085937,65.1673566 C48.0397135,70.1016014 40.7076823,72.5687237 39.8125,72.5687237 C38.9173177,72.5687237 35.4798177,70.1016014 29.5,65.1673566 Z" id="Finger2" stroke="#C2E8FF" stroke-width="3" fill="#FFFFFF"></path>
                    <path d="M35.5,63.0849793 C45.546224,63.6812257 54.1227214,60.5285025 61.2294922,53.6268098 C68.336263,46.7251171 76.8154297,38.4321483 86.6669922,28.7479035 C90.5419922,25.352178 95.0257161,24.619159 100.118164,26.5488465 C105.210612,28.478534 104.980143,31.7489879 99.4267578,36.3602082 L76.6630859,61.9178254 C62.8942057,66.8520702 55.5621745,69.3191926 54.6669922,69.3191926 C53.7718099,69.3191926 47.3828125,67.2411215 35.5,63.0849793 Z" id="Finger1" stroke="#C2E8FF" stroke-width="3" fill="#FFFFFF"></path>
                    <polyline id="MountainsLine8" stroke="#C2E8FF" stroke-width="3" stroke-linecap="round" stroke-linejoin="round" points="0 36 22 15.5 38.75 31.5"></polyline>
                    <polyline id="MountainsLine5" stroke="#C2E8FF" stroke-width="3" stroke-linecap="round" stroke-linejoin="round" points="33.5 26 39 21 54.5 35.5"></polyline>
                    <polyline id="MountainsLine4" stroke="#C2E8FF" stroke-width="3" stroke-linecap="round" stroke-linejoin="round" points="29.5 22.5 54 0 70.75 16"></polyline>
                    <polyline id="MountainsLine1" stroke="#C2E8FF" stroke-width="3" stroke-linecap="round" stroke-linejoin="round" points="65.5 10.5 71 5.5 85 19"></polyline>
                    <path d="M36.4883244,8.68516819 L39,18.3730597 L39,18.3730597 L33.3203125,13.640625 L34.549868,8.69486628 C34.6831145,8.1588963 35.2256216,7.83242438 35.7615916,7.96567084 C36.117423,8.0541334 36.3963059,8.33023974 36.4883244,8.68516819 Z" id="MountainsTree" fill="#C2E8FF" transform="translate(36.160156, 12.388768) scale(-1, 1) translate(-36.160156, -12.388768) "></path>
                </g>
            </g>
            <g id="Tree2" transform="translate(179.000000, 113.500000)">
                <g id="Tree2LightBlue" fill="#C2E8FF">
                    <path d="M10.4209988,4.29236217 L16.259296,24.443436 C16.5666778,25.5043744 15.9557995,26.613617 14.8948612,26.9209988 C14.7139843,26.9734036 14.5266126,27 14.3382972,27 L2.6617028,27 C1.5571333,27 0.661702805,26.1045695 0.661702805,25 C0.661702805,24.8116846 0.688299176,24.6243129 0.74070397,24.443436 L6.57900117,4.29236217 C6.88638297,3.23142381 7.99562563,2.62054553 9.05656399,2.92792733 C9.71521023,3.11875451 10.2301717,3.63371594 10.4209988,4.29236217 Z" id="Tree2LightBluebkgd"></path>
                </g>
                <g id="Tree2DarkBlue" stroke="#8CD3F8" stroke-linecap="round" stroke-width="3">
                    <polygon id="Tree2DarkBlueOutline1" stroke-linejoin="round" points="8.5 0.161971831 17 27 -1.8172e-12 27"></polygon>
                    <path d="M8.5,3.16197183 C8.5,23.6275866 8.5,34.073596 8.5,34.5 C8.5,34.073596 8.5,23.6275866 8.5,3.16197183 Z" id="Tree2DarkBlueLine2"></path>
                    <path d="M8.5,14.6619718 C11.1666667,17.8925806 12.5,19.5592472 12.5,19.6619718 C12.5,19.5592472 11.1666667,17.8925806 8.5,14.6619718 Z" id="Tree2DarkBlueLine1" stroke-linejoin="round" transform="translate(10.500000, 17.161972) scale(-1, 1) translate(-10.500000, -17.161972) "></path>
                </g>
            </g>
            <g id="Tree1" transform="translate(157.000000, 98.000000)">
                <g id="Tree1LightBlue" transform="translate(0.500000, 0.000000)" fill="#C2E8FF">
                    <path d="M12.8239437,0 L25.0758365,41.9391718 C25.3855734,42.9994249 24.7771597,44.1100213 23.7169065,44.4197582 C23.5347184,44.4729817 23.3458815,44.5 23.1560783,44.5 L2.49180902,44.5 C1.38723952,44.5 0.491809024,43.6045695 0.491809024,42.5 C0.491809024,42.3101968 0.518827286,42.1213599 0.572050791,41.9391718 L12.8239437,0 L12.8239437,0 Z" id="Tree1LightBlueBkgd"></path>
                </g>
                <g id="Tree1DarkBlue" transform="translate(0.000000, 1.000000)" stroke="#8CD3F8" stroke-linecap="round" stroke-width="3">
                    <polygon id="Tree1DarkBlueOutine" stroke-linejoin="round" points="13.5 0 26.5 43.5 0.5 43.5"></polygon>
                    <path d="M13.5,3 C13.5,32.2486474 13.5,47.2486474 13.5,48 C13.5,47.2486474 13.5,32.2486474 13.5,3 Z" id="Tree1DarkBlueLine3"></path>
                    <path d="M8.82394366,19 C11.8239437,21.8726794 13.3239437,23.3726794 13.3239437,23.5 C13.3239437,23.3726794 11.8239437,21.8726794 8.82394366,19 Z" id="Tree1DarkBlueLine2" stroke-linejoin="round"></path>
                    <path d="M13.8239437,34 C18.4906103,28.539346 20.8239437,25.8726794 20.8239437,26 C20.8239437,25.8726794 18.4906103,28.539346 13.8239437,34 Z" id="Tree1DarkBlueLine1" stroke-linejoin="round"></path>
                </g>
            </g>
            <g id="Tree2" transform="translate(109.750000, 89.500000)">
                <g id="Tree2LightBlue" transform="translate(1.000000, 0.000000)" fill="#C2E8FF">
                    <path d="M10.4209988,4.29236217 L16.259296,24.443436 C16.5666778,25.5043744 15.9557995,26.613617 14.8948612,26.9209988 C14.7139843,26.9734036 14.5266126,27 14.3382972,27 L2.6617028,27 C1.5571333,27 0.661702805,26.1045695 0.661702805,25 C0.661702805,24.8116846 0.688299176,24.6243129 0.74070397,24.443436 L6.57900117,4.29236217 C6.88638297,3.23142381 7.99562563,2.62054553 9.05656399,2.92792733 C9.71521023,3.11875451 10.2301717,3.63371594 10.4209988,4.29236217 Z" id="Tree2LightBluebkgd"></path>
                </g>
                <g id="Tree2DarkBlue" stroke="#8CD3F8" stroke-width="3">
                    <polygon id="Tree2DarkBlueOutline1" stroke-linecap="round" stroke-linejoin="round" points="9.75 0.161971831 18.75 27 0.75 27"></polygon>
                    <path d="M9.75,2.75 C9.75,21.6569293 9.75,31.323596 9.75,31.75 C9.75,31.323596 9.75,21.6569293 9.75,2.75 Z" id="Tree2DarkBlueLine2"></path>
                    <path d="M10.2114258,17.1619718 L14.5,22.7269287 L10.2114258,17.1619718 Z" id="Tree2DarkBlueLine1" stroke-linecap="round" stroke-linejoin="round" transform="translate(12.355713, 19.944450) scale(-1, 1) translate(-12.355713, -19.944450) "></path>
                </g>
            </g>
            <g id="Birds" transform="translate(183.000000, 57.500000)" stroke="#C2E8FF" stroke-linecap="round" stroke-width="3">
                <g id="BirdsLightBlue" transform="translate(15.186368, 11.462945) rotate(-15.000000) translate(-15.186368, -11.462945) translate(1.686368, 3.212945)">
                    <path d="M0.869889675,7.74716683 C0.869889675,7.74716683 5.64196848,6.3654704 6.67627554,11.374957" id="BirdsLine4" transform="translate(3.773083, 9.473744) rotate(41.000000) translate(-3.773083, -9.473744) "></path>
                    <path d="M5.56595444,11.1193927 C5.56595444,11.1193927 10.3380332,9.73769627 11.3723403,14.7471829" id="BirdsLine3" transform="translate(8.469147, 12.845970) scale(-1, 1) rotate(-41.000000) translate(-8.469147, -12.845970) "></path>
                    <path d="M15.0508145,0.212677391 C15.0508145,0.212677391 19.8228933,-1.16901904 20.8572003,3.84046757" id="BirdsLine2"></path>
                    <path d="M21.0508145,0.212677391 C21.0508145,0.212677391 25.8228933,-1.16901904 26.8572003,3.84046757" id="BirdsLine1" transform="translate(23.954007, 1.939254) scale(-1, 1) translate(-23.954007, -1.939254) "></path>
                </g>
            </g>
            <g id="Sun" transform="translate(112.000000, 28.000000)" stroke-width="3">
                <g id="SunLightBlue" stroke="#C2E8FF" stroke-linecap="round" stroke-linejoin="round">
                    <path d="M31.7804084,54.3739 C44.2068153,54.3739 54.2804084,44.2525647 54.2804084,31.7672649 C54.2804084,19.2819651 44.2068153,9.16062982 31.7804084,9.16062982 C19.3540015,9.16062982 9.28040839,19.2819651 9.28040839,31.7672649 C9.28040839,44.2525647 19.3540015,54.3739 31.7804084,54.3739 Z" id="SunLightBlueOutline2" stroke-dasharray="67.5,0.5,0.5,9" transform="translate(31.780408, 31.767265) rotate(230.000000) translate(-31.780408, -31.767265) "></path>
                    <path d="M31.5785187,48.1853406 C40.6912171,48.1853406 48.0785187,40.763028 48.0785187,31.6071415 C48.0785187,22.451255 40.6912171,15.0289425 31.5785187,15.0289425 C22.4658203,15.0289425 15.0785187,22.451255 15.0785187,31.6071415 C15.0785187,40.763028 22.4658203,48.1853406 31.5785187,48.1853406 Z" id="SunLightBlueOutline1" stroke-dasharray="53.5,5" transform="translate(31.578519, 31.607142) rotate(150.000000) translate(-31.578519, -31.607142) "></path>
                </g>
                <g id="SunDarkBlue" transform="translate(19.000000, 19.000000)" fill="#C2E8FF" stroke="#8CD3F8">
                    <ellipse id="SunDarkBlueOutline" cx="12.5" cy="12.5592417" rx="11" ry="11.0592417"></ellipse>
                </g>
            </g>
            <g id="Hand" transform="translate(81.500000, 122.000000)" fill="#FFFFFF" stroke="#8CD3F8" stroke-linecap="round" stroke-linejoin="round" stroke-width="3">
                <g id="HandDarkBlue">
                    <path d="M0,30.5 L24,5.5 C27.3333333,2.16666667 31.8333333,0.5 37.5,0.5 C43.1666667,0.5 56.8333333,0.5 78.5,0.5 C83.5,0.833333333 86,3.33333333 86,8 C85.5,12.5 81,15.5 78.5,15.5 C76.8333333,15.5 69.5,15.5 56.5,15.5 C52.5,15.3333333 50.1666667,16.8333333 49.5,20 C49.5,24.2880859 52,26 55,26.5 L99,26.5 C104,26.1666667 108.333333,24.3333333 112,21 C117.5,16 127.258789,6.307718 131.5,4 C135.741211,1.692282 142,0 146.5,2.5 C151,5 151.5,6.5 144.5,13 C139.833333,17.3333333 130.833333,26 117.5,39 C113.166667,43.3333333 107.833333,45.5 101.5,45.5 C95.1666667,45.5 77.5,45.5 48.5,45.5 C44.1666667,45.5 40.5,47.3333333 37.5,51" id="HandShape"></path>
                </g>
            </g>
        </g>
    </g>
</svg>