<?xml version="1.0" encoding="UTF-8"?>
<svg width="229px" height="108px" viewBox="0 0 229 108" version="1.1" xmlns="http://www.w3.org/2000/svg" xmlns:xlink="http://www.w3.org/1999/xlink">
    <!-- Generator: Sketch 59.1 (86144) - https://sketch.com -->
    <title>NoAccess</title>
    <desc>Created with Sketch.</desc>
    <g id="Symbols" stroke="none" stroke-width="1" fill="none" fill-rule="evenodd">
        <g id="NoAccess" transform="translate(-34.000000, -5.000000)">
            <rect id="Rectangle-" fill-opacity="0" fill="#D8D8D8" x="0" y="0" width="300" height="113"></rect>
            <g id="Tree2" transform="translate(58.750000, 70.500000)">
                <g id="Tree2White" transform="translate(1.000000, 0.000000)" fill="#FFFFFF">
                    <path d="M10.4209988,4.29236217 L16.259296,24.443436 C16.5666778,25.5043744 15.9557995,26.613617 14.8948612,26.9209988 C14.7139843,26.9734036 14.5266126,27 14.3382972,27 L2.6617028,27 C1.5571333,27 0.661702805,26.1045695 0.661702805,25 C0.661702805,24.8116846 0.688299176,24.6243129 0.74070397,24.443436 L6.57900117,4.29236217 C6.88638297,3.23142381 7.99562563,2.62054553 9.05656399,2.92792733 C9.71521023,3.11875451 10.2301717,3.63371594 10.4209988,4.29236217 Z" id="Tree2WhiteBkgd"></path>
                </g>
                <g id="Tree2LightBlue" stroke="#C2E8FF" stroke-linecap="round" stroke-width="3">
                    <polygon id="Tree2LightBlueOutline1" stroke-linejoin="round" points="9.75 0.161971831 18.75 26.25 0.75 26.25"></polygon>
                    <path d="M9.75,2.34765625 C9.75,21.5228147 9.75,31.323596 9.75,31.75 C9.75,31.323596 9.75,21.5228147 9.75,2.34765625 Z" id="Tree2LightBlueLine2"></path>
                    <path d="M5.5,13.6619718 C8.16666667,16.2259139 9.5,17.5592472 9.5,17.6619718 C9.5,17.5592472 8.16666667,16.2259139 5.5,13.6619718 Z" id="Tree2LightBlueLine1" stroke-linejoin="round"></path>
                </g>
            </g>
            <g id="Tree1" transform="translate(72.000000, 56.000000)">
                <g id="Tree1White" transform="translate(0.500000, 0.000000)" fill="#FFFFFF">
                    <path d="M12.8239437,0 L25.0550983,40.9273253 C25.3713779,41.9856452 24.7698353,43.0999782 23.7115153,43.4162577 C23.5256938,43.4717906 23.3327828,43.5 23.1388406,43.5 L2.5090467,43.5 C1.40447721,43.5 0.509046705,42.6045695 0.509046705,41.5 C0.509046705,41.3060578 0.537256095,41.1131469 0.592788981,40.9273253 L12.8239437,0 L12.8239437,0 Z" id="Tree1WhiteBkgd"></path>
                </g>
                <g id="Tree1LightBlue" stroke="#C2E8FF" stroke-linecap="round" stroke-width="3">
                    <polygon id="Tree1LightBlueOutine" stroke-linejoin="round" points="13.5 0 27.25 42.75 0.25 42.75"></polygon>
                    <path d="M13.5,1.79321289 C13.5,30.6797184 13.5,45.4986474 13.5,46.25 C13.5,45.4986474 13.5,30.6797184 13.5,1.79321289 Z" id="Tree1LightBlueLine3"></path>
                    <path d="M7.82394366,21 C11.4906103,24.539346 13.3239437,26.3726794 13.3239437,26.5 C13.3239437,26.3726794 11.4906103,24.539346 7.82394366,21 Z" id="Tree1LightBlueLine2" stroke-linejoin="round"></path>
                    <path d="M13.8239437,34 C18.4906103,28.539346 20.8239437,25.8726794 20.8239437,26 C20.8239437,25.8726794 18.4906103,28.539346 13.8239437,34 Z" id="Tree1LightBlueLine1" stroke-linejoin="round"></path>
                </g>
            </g>
            <g id="Mountian" transform="translate(202.000000, 81.500000) scale(-1, 1) translate(-202.000000, -81.500000) translate(173.500000, 72.000000)" stroke="#C2E8FF" stroke-linecap="round" stroke-linejoin="round" stroke-width="3">
                <g id="MountianLightBlue">
                    <polyline id="MountianLightBlueLine4" points="0 19 24 0 40 13"></polyline>
                    <polyline id="MountianLightBlueLine1" points="35.5 8.5 40 4.5 56.5 18"></polyline>
                </g>
            </g>
            <g id="Bush1" transform="translate(36.000000, 89.250000)">
                <g id="Bush1LightBlue">
                    <path d="M76.9810708,13.2322245 C75.6128675,10.0071547 72.4723882,7.7514553 68.816946,7.7514553 C67.8098316,7.7514553 66.8418061,7.92267707 65.9391638,8.23821958 C64.2257405,5.58521329 61.283703,3.83492723 57.9418946,3.83492723 C54.7456337,3.83492723 51.9150793,5.43607116 50.1754255,7.89678339 C49.4794978,7.4840805 48.6711578,7.24781705 47.8088803,7.24781705 C47.0541571,7.24781705 46.3407551,7.42881672 45.7078836,7.75070193 C43.9987664,3.29361107 39.7549152,0.137629938 34.7902279,0.137629938 C30.2316418,0.137629938 26.2807891,2.79842183 24.3418652,6.68409115 C23.1956017,6.13348651 21.9157432,5.82577963 20.5656371,5.82577963 C16.2186752,5.82577963 12.5999422,9.01564989 11.8238107,13.2322245 L76.9810708,13.2322245 L76.9810708,13.2322245 Z" id="Bush1LightBlueShape" fill="#C2E8FF"></path>
                    <line x1="0" y1="13.25" x2="225.5" y2="13.25" id="BushHorizonLine" stroke="#C2E8FF" stroke-width="3" stroke-linecap="round"></line>
                </g>
            </g>
            <g id="Bush2" transform="translate(172.000000, 82.400002)" fill="#C2E8FF">
                <g id="Bush2LightBlue" transform="translate(0.146718, 0.027146)">
                    <path d="M82.7143538,20.8751793 L0.0497716281,20.8751793 C0.0168307478,20.5086392 0,20.1374031 0,19.7621984 C0,13.0456687 5.39332657,7.60084553 12.046332,7.60084553 C13.8746008,7.60084553 15.6077425,8.01202185 17.1599751,8.74777127 C19.7856014,3.55550849 25.135714,0 31.3087987,0 C38.0318128,0 43.7786947,4.21721059 46.0931242,10.1730417 C46.9501377,9.7429195 47.916203,9.50105691 48.9382239,9.50105691 C50.1058914,9.50105691 51.2005184,9.81676626 52.1429206,10.3682445 C54.4987017,7.08009378 58.3317442,4.94054959 62.6600141,4.94054959 C69.0217205,4.94054959 74.313576,9.56265476 75.4173776,15.6603909 C75.7436941,15.6086146 76.078197,15.5817333 76.4189189,15.5817333 C79.5585481,15.5817333 82.170119,17.864207 82.7143538,20.8751793 L82.7143538,20.8751793 Z" id="Bush2LightBlueShape"></path>
                </g>
            </g>
            <g id="Chest" transform="translate(52.500000, 60.500000)">
                <g id="ChestWhite" transform="translate(53.000000, 0.000000)" fill="#FFFFFF">
                    <polygon id="MiddlePartBkgd" points="60.75 24.25 79.25 24.25 79.25 17.25 23.75 17.25 23.75 24.25 46.75 24.25 46.75 34.75 60.75 34.75 60.75 24.25"></polygon>
                    <path d="M16.9941406,0.109375 C18.280599,0.109375 35.3063151,0.109375 68.0712891,0.109375 L76.1923828,5.55664063 L22.6621094,6.74414062 C17.5970052,2.32096354 15.7076823,0.109375 16.9941406,0.109375 Z" id="CoverHightlight"></path>
                    <path d="M16.3354492,1.01123047 L10.77771,0.187097759 L8.80180168,0.187097759 L2.88574219,3.95214844 C1.54544908,6.33688359 1.54544908,7.61422734 2.88574219,7.78417969 C4.22603529,7.95413204 8.06392592,7.16344193 14.3994141,5.41210938 L21.4960937,3.95214844 L20.5349946,2.84224091 L16.3354492,1.01123047 Z" id="SideHighlight"></path>
                    <rect id="SideWhite1" x="0" y="17" width="24" height="7"></rect>
                </g>
                <g id="ChestLightBlue" transform="translate(53.000000, 4.500000)" fill="#C2E8FF">
                    <polygon id="FrontPlateBkgd" points="46.6554688 19.7283203 46.6554688 30.3361328 60.4625 30.3361328 60.9115234 20.0662109 79.25 19.7283203 79.25 46.75 24.25 46.75 24.25 19.8466797"></polygon>
                    <path d="M66.3354492,0 C61.4399414,0 45.9492188,0 19.8632812,0 L15.9091797,4.25292969 L14.8525391,12.1357422 L78.890625,12.1357422 L78.890625,7.73876953 C75.4160156,2.57958984 71.230957,0 66.3354492,0 Z" id="CoverBkgd"></path>
                    <path d="M18.9133301,0 C17.2318669,0 14.7093246,0 11.3457031,0 C8.08121745,0 4.76904297,1.91764323 1.40917969,5.75292969 L0.352539062,13.1357422 L24.2050781,13.1357422 L24.2050781,5.23876953 L24.0894954,4.16379264 C22.4673318,1.38793088 20.7419434,0 18.9133301,0 Z" id="Side3Bkgd"></path>
                    <rect id="Side2Bkgd" x="0.25" y="19.75" width="24" height="27"></rect>
                </g>
                <g id="ChestDarkBlue">
                    <polygon id="FrontPlate" stroke="#8CD3F8" stroke-width="3" stroke-linecap="round" stroke-linejoin="round" points="77 17 132 17 132 51 77 51"></polygon>
                    <polygon id="MiddlePart" stroke="#8CD3F8" stroke-width="3" stroke-linecap="round" stroke-linejoin="round" points="132 24 132 17 77 17 77 24 100 24 100 35 114 35 114 24"></polygon>
                    <path d="M65,0 L120,0 C126.627417,-1.21743675e-15 132,5.372583 132,12 L132,17 L132,17 L53,17 L53,12 C53,5.372583 58.372583,1.21743675e-15 65,0 Z" id="CoverOutline" stroke="#8CD3F8" stroke-width="3" stroke-linecap="round" stroke-linejoin="round"></path>
                    <path d="M65,0 C71.627417,-1.21743675e-15 77,5.372583 77,12 L77,17 L77,17 L53,17 L53,12 C53,5.372583 58.372583,1.21743675e-15 65,0 Z" id="Side3" stroke="#8CD3F8" stroke-width="3" stroke-linecap="round" stroke-linejoin="round"></path>
                    <rect id="Side2" stroke="#8CD3F8" stroke-width="3" stroke-linecap="round" stroke-linejoin="round" x="53" y="24" width="24" height="27"></rect>
                    <rect id="Side1" stroke="#8CD3F8" stroke-width="3" stroke-linecap="round" stroke-linejoin="round" x="53" y="17" width="24" height="7"></rect>
                    <path d="M109.5,26 C109.5,27.3825 108.3825,28.5 107,28.5 C105.6175,28.5 104.5,27.3825 104.5,26 C104.5,24.6175 105.6175,23.5 107,23.5 C108.3825,23.5 109.5,24.6175 109.5,26 Z" id="Lock2" fill="#8CD3F8"></path>
                    <line x1="107" y1="27.5" x2="107" y2="30" id="Lock1" stroke="#8CD3F8" stroke-width="3" stroke-linecap="round"></line>
                    <circle id="Screws8" fill="#8CD3F8" cx="82" cy="29" r="1.5"></circle>
                    <circle id="Screws7" fill="#8CD3F8" cx="82" cy="46.5" r="1.5"></circle>
                    <circle id="Screws6" fill="#8CD3F8" cx="127.5" cy="29" r="1.5"></circle>
                    <circle id="Screws5" fill="#8CD3F8" cx="127.5" cy="46.5" r="1.5"></circle>
                    <circle id="Screws4" fill="#8CD3F8" cx="72.5" cy="29" r="1.5"></circle>
                    <circle id="Screws3" fill="#8CD3F8" cx="72.5" cy="46.5" r="1.5"></circle>
                    <circle id="Screws2" fill="#8CD3F8" cx="58" cy="29" r="1.5"></circle>
                    <circle id="Screws1" fill="#8CD3F8" cx="58" cy="46.5" r="1.5"></circle>
                    <path d="M145.428751,42.3120069 L149,51.2593288 L149,51.2593288 L140,51.2593288 L143.571249,42.3120069 C143.775982,41.7990717 144.357768,41.5492251 144.870703,41.7539589 C145.125359,41.8556025 145.327108,42.0573514 145.428751,42.3120069 Z" id="Grass4" fill="#8CD3F8"></path>
                    <path d="M150.678751,46.0700714 L152.75,51.2593288 L152.75,51.2593288 L146.75,51.2593288 L148.821249,46.0700714 C149.025982,45.5571362 149.607768,45.3072896 150.120703,45.5120234 C150.375359,45.613667 150.577108,45.815416 150.678751,46.0700714 Z" id="Grass3" fill="#8CD3F8"></path>
                    <path d="M47.1787513,42.3120069 L50.75,51.2593288 L50.75,51.2593288 L41.75,51.2593288 L45.3212487,42.3120069 C45.5259825,41.7990717 46.1077681,41.5492251 46.6207033,41.7539589 C46.8753588,41.8556025 47.0771077,42.0573514 47.1787513,42.3120069 Z" id="Grass2" fill="#8CD3F8" transform="translate(46.250000, 46.258723) scale(-1, 1) translate(-46.250000, -46.258723) "></path>
                    <path d="M38.9287513,46.0700714 L41,51.2593288 L41,51.2593288 L35,51.2593288 L37.0712487,46.0700714 C37.2759825,45.5571362 37.8577681,45.3072896 38.3707033,45.5120234 C38.6253588,45.613667 38.8271077,45.815416 38.9287513,46.0700714 Z" id="Grass1" fill="#8CD3F8" transform="translate(38.000000, 48.137755) scale(-1, 1) translate(-38.000000, -48.137755) "></path>
                    <line x1="180" y1="51" x2="186" y2="51" id="ChestHorizonLine2" stroke="#8CD3F8" stroke-width="3" stroke-linecap="round" stroke-linejoin="round"></line>
                    <line x1="0" y1="51" x2="175" y2="51" id="ChestHorizonLine1" stroke="#8CD3F8" stroke-width="3" stroke-linecap="round" stroke-linejoin="round"></line>
                </g>
            </g>
            <g id="Cloud1" transform="translate(75.000000, 6.748815)" stroke="#C2E8FF" stroke-linecap="round" stroke-width="3">
                <g id="Cloud1LightBlue">
                    <path d="M22,8.79146919 L31.5,8.79146919 C31.1394857,6.06480614 32.0407715,3.78378292 34.2038574,1.94839955 C36.6877441,-0.0982417247 39.6367188,0.360587604 41.220459,1.06679965 C42.8041992,1.7730117 43.9803467,2.74328671 44.7956543,4.5741966 C45.1411133,5.34508018 45.3758952,5.99728321 45.5,6.53080569" id="Cloud1LightBlueLine4"></path>
                    <path d="M41.5,10.2985782 C42.0279134,8.46301559 43.1113688,7.26289664 44.7503662,6.69822136 C47.2088623,5.85120844 49.5400391,6.97920986 50.4711914,8.11420227 C51.4023438,9.24919468 51.6975098,10.1609662 51.873291,11.1124759 C51.9904785,11.7468158 52.0327148,12.4802559 52,13.3127962 L54.081543,13.3127962 C56.0183919,13.8295019 56.9937985,14.9811653 57.0077626,16.7677864 C57.0322678,19.9575033 54.6954577,20.7511848 53.5,20.7511848 L14,20.7511848" id="Cloud1LightBlueLine3"></path>
                    <line x1="9" y1="14.7511848" x2="41.5002493" y2="14.7511848" id="Cloud1LightBlueLine2"></line>
                    <line x1="0" y1="14.7511848" x2="4" y2="14.7511848" id="Cloud1LightBlueLine1"></line>
                </g>
            </g>
            <g id="Cloud2" transform="translate(136.000000, 25.748815)" stroke="#C2E8FF" stroke-linecap="round" stroke-width="3">
                <g id="Cloud2LightBlue">
                    <path d="M22,8.79146919 L31.5,8.79146919 C31.1394857,6.06480614 32.0407715,3.78378292 34.2038574,1.94839955 C36.6877441,-0.0982417247 39.6367188,0.360587604 41.220459,1.06679965 C42.8041992,1.7730117 43.9803467,2.74328671 44.7956543,4.5741966 C45.1411133,5.34508018 45.3758952,5.99728321 45.5,6.53080569" id="Cloud2LightBlueLine4"></path>
                    <path d="M41.5,10.2985782 C42.0279134,8.46301559 43.1113688,7.26289664 44.7503662,6.69822136 C47.2088623,5.85120844 49.5400391,6.97920986 50.4711914,8.11420227 C51.4023438,9.24919468 51.6975098,10.1609662 51.873291,11.1124759 C51.9904785,11.7468158 52.0327148,12.4802559 52,13.3127962 L54.081543,13.3127962 C56.0183919,13.8295019 56.9937985,14.9811653 57.0077626,16.7677864 C57.0322678,19.9575033 54.6954577,20.7511848 53.5,20.7511848 L14,20.7511848" id="Cloud2LightBlueLine3"></path>
                    <line x1="9" y1="14.7511848" x2="41.5002493" y2="14.7511848" id="Cloud2LightBlueLine2"></line>
                    <line x1="0" y1="14.7511848" x2="4" y2="14.7511848" id="Cloud2LightBlueLine1"></line>
                </g>
            </g>
            <g id="Birds" transform="translate(201.000000, 41.000000)" stroke="#C2E8FF" stroke-linecap="round" stroke-width="3">
                <g id="BirdsLightBlue" transform="translate(15.856721, 12.544163) rotate(-15.000000) translate(-15.856721, -12.544163) translate(2.356721, 3.294163)">
                    <path d="M15.5180353,1.71764295 C15.5180353,1.71764295 20.2901141,0.335946526 21.3244212,5.34543313" id="BirdsLine4" transform="translate(18.421228, 3.444220) rotate(41.000000) translate(-18.421228, -3.444220) "></path>
                    <path d="M20.2141001,5.08986883 C20.2141001,5.08986883 24.9861789,3.7081724 26.020486,8.71765901" id="BirdsLine3" transform="translate(23.117293, 6.816446) scale(-1, 1) rotate(-41.000000) translate(-23.117293, -6.816446) "></path>
                    <path d="M0.365142392,14.7932757 C0.365142392,14.7932757 5.1372212,13.4115793 6.17152826,18.4210659" id="BirdsLine2"></path>
                    <path d="M6.36514239,14.7932757 C6.36514239,14.7932757 11.1372212,13.4115793 12.1715283,18.4210659" id="BirdsLine1" transform="translate(9.268335, 16.519853) scale(-1, 1) translate(-9.268335, -16.519853) "></path>
                </g>
            </g>
        </g>
    </g>
</svg>