<svg xmlns="http://www.w3.org/2000/svg" xmlns:xlink="http://www.w3.org/1999/xlink" width="240" height="117" fill="none" viewBox="0 0 2400 1170"><style>.d{stroke-width:30}.e{stroke-linejoin:round}.f{stroke-linecap:round}</style><g stroke="#c2e8ff" class="d f"><path d="M2210 1080l-222-180-175 135m174.5-130v170m-175-120v75-75zm52.5 35l-53-45-162 135" class="e"/><use xlink:href="#a"/><path d="M545 530a49.8 49.8 0 0 1 32.5-36 54 54 0 0 1 57.2 14.2 60.6 60.6 0 0 1 14 30 99.7 99.7 0 0 1 1.3 22h20.8c19.4 5 29 16.6 29.3 34.5.2 32-23.2 39.8-35 39.8H270m-50-60h325m-415 0h40"/><use x="960" y="-410" xlink:href="#a"/><path d="M1505 120a49.8 49.8 0 0 1 32.5-36 54 54 0 0 1 57.2 14.2 60.6 60.6 0 0 1 14 30 99.7 99.7 0 0 1 1.3 22h20.8c19.4 5 29 16.6 29.3 34.5.2 32-23.2 39.8-35 39.8H1230m-50-60h325m-415 0h40M135 1085h2250"/></g><path fill="#c2e8ff" d="M2170.4 964l29.6 99.7-62.5-44.5 13.6-55a10 10 0 0 1 19.3-.4zm-476 10.4L1669 1065l56.2-49.5-11.6-41a10 10 0 0 0-19.2 0zm-1581.8-67c1-7.4.4-16.2-3-26.6l-.6-1.6C122.4 845 98.6 856 91.5 860a32.1 32.1 0 0 0-3.8-1.6s-14.4-7-29.4-7c-5.5-8-19.7-25.2-23 9-15 13.7-24.7 33.2-12.5 55.4-2.5-1-5.6-1.4-8.4 0-6.7 3.5-9.3 9-7 16 2 6 11.6 13.3 22 15.5a4 4 0 0 0 .6.3c2 1 5 1.8 7.8 3 .8.3 1.3 1 1.5 2s-.1 1.7-.7 2.3c-5 5.5-14.6 9.2-21.6 10.7-8.5 2-18.5 2-17 11.4 2 12.7 20 17.2 26.3 17.7s6.6-5.3 9-6.8 14.2-2.4 21.3-.6a42 42 0 0 1 24.8 22c3.6 10.8 11 23.3 18.8 19.8s10.3-21.2 9.5-27.3c-.8-6.4-5.6-7.7-8.6-11 0-.2 0-.3.2-.5 1.2-2 7.5 5 23-3.5 0 0-7.6-.7-7.4-3s5 1 12.5-5c9.4-7.2 18 .5 20.4 3.5 0 0-1.7-23-22.3-28.8-3.6-1-1.4-1.8 3-2.4 0 0-13-6-31.6 4.7l-.2.1.1-1.7a2.7 2.7 0 0 1 1-1.8l16.6-11.5c1.4.2 2.7 0 3.8-.4 12-4.5 17.8-13 18.3-20.6.6-8-3.5-12.8-11.3-14.2-4.8-.8-9 2.5-11.5 5a1.5 1.5 0 0 1-1.6.4 1.7 1.7 0 0 1-1-1.3 13.2 13.2 0 0 0-.7-2.8zM363.2 1023c-19 2.4-61-7-90.4 13-15.2 10.5-3.7 37.2-3.7 37.2-5.7-3.4-6.4-6-6.4-6a50.6 50.6 0 0 0 2.8 6.9s6.8 6.3-.7 17.7-9 10-9.8 9-1-9.7-3-9.3-4 6.3-6.4 6-3-19-1.5-25.8l.6 1c.4-5 1.7-10 1.7-16.2 0-8.8-4-16-7-25s-8-36.3-5-54 .8-40.5.8-40.5c-1.5 2.6-6.7 4.7-6.7 4.7 1.5-1.3 3-7.8 3-7.8-6.2 5-10.7 3-10.7 3 2.8-2 5-9.5 5-9.5-4 4.5-13.5 3.8-13.5 3.8l4-3.8a52.7 52.7 0 0 1-11.3-6.7c-7-3.8-13.7-12.2-12.3-15 1.5-3 6.4.4 7.2-1.7s-1-7.6 1-7.6 12.4 8 12.4 8c5.3 3 11.4 3.5 17.3 1.7 2.3-.7 4.2-1.8 5.8-3.2-1-5.8-.5-10.6-1-14-1.2-1-5.2 2-16.8-1s-15.3-20.8-10-29.7 11-22.4 12.5-27.3 4.6-14.3 13-19.5a37 37 0 0 1 8.2-3.9c-1-14.7-14.7-9.2-17.5-10.2-2.6-1 .4-3.5 2.6-4.2 2.7-1 13.3-6.6 21.3.3 2.8 2.5 5 7.3 5.8 12.5a44.1 44.1 0 0 1 7 .8c4.3 1 8 2.2 11 4 4.6-5.2 15.3-10 23-8.2 15 4 10.4 13.5 30.4 27.6 1.2.8 1 3.6-1.5 2.7-23-8.2-22-30.5-41-11.2a51 51 0 0 1 2.3 4.7v-.2s28.2 16.4 20.6 26.6c-3 4-12 1.2-19.3-3.3a106 106 0 0 1-3.8 14.3l1.6 16.2a35 35 0 0 0 29.7 17.7l18-3.5c3.3-1.4 6-2 7-1.5 2.3 1.2-3.7 10-3.7 10s12.6-4.5 8.2 2.6c-7.6 12.3-14.4 13-18.4 11.6a110 110 0 0 1-21.4 5.2c.4 3 9.8 7.2 9.8 7.2-4.5.4-11.7-.5-11.7-.5l44 66.7c6.8 4 16.8 4.6 20.8 4.7 8-2 19-1.5 19.7 1.7.8 3.4-5.6 6-5.6 7.6s9 2 5 7.2-23 6.3-23 6.3h.3zm716.8-83a25 25 0 1 0 50 0 25 25 0 1 0-50 0zm85 25a15 15 0 1 1 0 30 15 15 0 1 1 0-30M988.5 675a107 107 0 0 1 93.3 54.6 78.1 78.1 0 1 1 45 142l-2.7-.2a77.8 77.8 0 0 1-113.9 15.8 107.5 107.5 0 0 1-21.7 2.2c-59.2 0-103.5-47-103.5-106.3s44.4-108 103.5-108zM684 537.3l56.6 343.3a20 20 0 0 1-19.8 23.3H600.6a20 20 0 0 1-19.6-23.7L644.6 537a20 20 0 0 1 39.4.4zm721.6-179L1533.2 884a20 20 0 0 1-19.4 24.7H1283a20 20 0 0 1-19.3-25.2l141.8-525.3z"/><path fill="#8cd3f8" d="M737.5 1010.3s128.6 25 274.7 25 295.3-25 295.3-25-61.4 38-93 49.8-96.3 21.7-96.3 21.7-64 17.2-95.7 18-74.8-14-74.8-14L819 1060l-81.4-49.8zM1009.7 765h53a8 8 0 0 1 8 8v6a5 5 0 0 1-1.4 3.4l-43.2 45h43.9a8.6 8.6 0 1 1 0 17.2h-64.8a8.3 8.3 0 0 1-8.3-8.3V830a5 5 0 0 1 1.4-3.4l42.7-44.7h-31.3a8.5 8.5 0 1 1 0-17z"/><g stroke="#8cd3f8"><g class="f"><path stroke-width="40" d="M709 961.7s73 135.4 315.5 135.4S1359 961.7 1359 961.7" class="e"/><path d="M640 992.5h75m635 0h75M385 1155h1850m-1950 0h60" class="d"/></g><g class="d e"><path d="M718 756.2l-45 49.5 45-49.5zm-90-60l35 44.5c0-2.3-11.7-17-35-44.5zm875 20l-90 99.5 90-99.5zm-175-65l75 89.5c0-2.3-25-32-75-89.5zm140-65l-55 69.5 55-69.5z"/><path d="M666 439l92 466H578zm740-94l145 560h-293z"/></g><path d="M665 475v675-675zm741-100v775-775z" class="d"/></g><path fill="#c2e8ff" d="M1574 617.3l56.6 343.3a20 20 0 0 1-19.8 23.3h-120.2a20 20 0 0 1-19.6-23.7l63.6-343.3a20 20 0 0 1 39.4.4z"/><g stroke="#8cd3f8" class="d"><path d="M1556 534l92 451h-180zm62 302l-55 60 55-60z" class="e"/><path d="M1555.5 555.5v599-599z"/></g><path stroke="#c2e8ff" d="M1842 648s50 9 37 58m70-12s-37-33-68 8m-165 131s43-26 66 20m48-51s-50 0-47 50" class="d f"/><path id="a" d="M350 515h95a72.5 72.5 0 0 1 27-68.4c25-20.5 54.4-16 70.2-8.8s27.6 16.7 35.8 35l7 19.6"/></svg>