<?xml version="1.0" encoding="UTF-8"?>
<svg width="228px" height="139px" viewBox="0 0 228 139" version="1.1" xmlns="http://www.w3.org/2000/svg" xmlns:xlink="http://www.w3.org/1999/xlink">
    <!-- Generator: Sketch 59.1 (86144) - https://sketch.com -->
    <title>NoConnection</title>
    <desc>Created with Sketch.</desc>
    <g id="Symbols" stroke="none" stroke-width="1" fill="none" fill-rule="evenodd">
        <g id="NoConnection" transform="translate(-38.000000, -27.000000)">
            <rect id="Rectangle-" fill-opacity="0" fill="#D8D8D8" x="0" y="0" width="300" height="200"></rect>
            <g id="Cloud1" transform="translate(95.000000, 101.748815)" stroke="#C2E8FF" stroke-linecap="round" stroke-width="3">
                <g id="Cloud1LightBlue">
                    <path d="M22,8.79146919 L31.5,8.79146919 C31.1394857,6.06480614 32.0407715,3.78378292 34.2038574,1.94839955 C36.6877441,-0.0982417247 39.6367188,0.360587604 41.220459,1.06679965 C42.8041992,1.7730117 43.9803467,2.74328671 44.7956543,4.5741966 C45.1411133,5.34508018 45.3758952,5.99728321 45.5,6.53080569" id="Cloud1LightBlueLine4"></path>
                    <path d="M41.5,10.2985782 C42.0279134,8.46301559 43.1113688,7.26289664 44.7503662,6.69822136 C47.2088623,5.85120844 49.5400391,6.97920986 50.4711914,8.11420227 C51.4023438,9.24919468 51.6975098,10.1609662 51.873291,11.1124759 C51.9904785,11.7468158 52.0327148,12.4802559 52,13.3127962 L54.081543,13.3127962 C56.0183919,13.8295019 56.9937985,14.9811653 57.0077626,16.7677864 C57.0322678,19.9575033 54.6954577,20.7511848 53.5,20.7511848 L14,20.7511848" id="Cloud1LightBlueLine3"></path>
                    <line x1="9" y1="14.7511848" x2="41.5002493" y2="14.7511848" id="Cloud1LightBlueLine2"></line>
                    <line x1="0" y1="14.7511848" x2="4" y2="14.7511848" id="Cloud1LightBlueLine1"></line>
                </g>
            </g>
            <g id="Cloud2" transform="translate(150.000000, 79.748815)" stroke="#C2E8FF" stroke-linecap="round" stroke-width="3">
                <g id="Cloud2LightBlue">
                    <path d="M22,8.79146919 L31.5,8.79146919 C31.1394857,6.06480614 32.0407715,3.78378292 34.2038574,1.94839955 C36.6877441,-0.0982417247 39.6367188,0.360587604 41.220459,1.06679965 C42.8041992,1.7730117 43.9803467,2.74328671 44.7956543,4.5741966 C45.1411133,5.34508018 45.3758952,5.99728321 45.5,6.53080569" id="Cloud2LightBlueLine4"></path>
                    <path d="M41.5,10.2985782 C42.0279134,8.46301559 43.1113688,7.26289664 44.7503662,6.69822136 C47.2088623,5.85120844 49.5400391,6.97920986 50.4711914,8.11420227 C51.4023438,9.24919468 51.6975098,10.1609662 51.873291,11.1124759 C51.9904785,11.7468158 52.0327148,12.4802559 52,13.3127962 L54.081543,13.3127962 C56.0183919,13.8295019 56.9937985,14.9811653 57.0077626,16.7677864 C57.0322678,19.9575033 54.6954577,20.7511848 53.5,20.7511848 L14,20.7511848" id="Cloud2LightBlueLine3"></path>
                    <line x1="9" y1="14.7511848" x2="41.5002493" y2="14.7511848" id="Cloud2LightBlueLine2"></line>
                    <line x1="0" y1="14.7511848" x2="4" y2="14.7511848" id="Cloud2LightBlueLine1"></line>
                </g>
            </g>
            <g id="Mountain2" transform="translate(39.500000, 124.500000)">
                <g id="Mountain2LightBlue">
                    <line x1="0" y1="31" x2="225" y2="31" id="HorizonLine3" stroke="#C2E8FF" stroke-width="3" stroke-linecap="round"></line>
                    <polyline id="Mountain2Line4" stroke="#C2E8FF" stroke-width="3" stroke-linecap="round" stroke-linejoin="round" points="16 31 54 0 82.75 22.5616438"></polyline>
                    <polyline id="Mountain2Line1" stroke="#C2E8FF" stroke-width="3" stroke-linecap="round" stroke-linejoin="round" points="74 15.4716981 83 8 111 31"></polyline>
                    <path d="M20.8943213,18.5885584 L22.1962891,24.7148438 L22.1962891,24.7148438 L16.2265625,29.3222656 L18.9466068,18.5515832 C19.081836,18.0161101 19.6255477,17.6916482 20.1610209,17.8268774 C20.5306645,17.9202278 20.8150677,18.215638 20.8943213,18.5885584 Z" id="Mountain2Tree3" fill="#C2E8FF"></path>
                    <path d="M100.462964,15.4391572 L103,24.5 L103,24.5 L97.385109,19.5531821 L98.537036,15.4391572 C98.6859485,14.9073269 99.2377996,14.5969106 99.7696299,14.7458231 C100.105963,14.8399963 100.368791,15.1028246 100.462964,15.4391572 Z" id="Mountain2Tree2" fill="#C2E8FF"></path>
                    <path d="M24.4662349,20.4908702 L25.2135692,23.2933737 L25.2135692,23.2933737 L23.4125977,24.3674892 L21.5,24.3674892 L22.5337651,20.4908702 C22.6760682,19.9572334 23.2240258,19.6399948 23.7576627,19.7822979 C24.1036917,19.8745723 24.3739605,20.1448412 24.4662349,20.4908702 Z" id="Mountain2Tree1" fill="#C2E8FF"></path>
                </g>
            </g>
            <g id="Mountain1" transform="translate(197.000000, 133.000000) scale(-1, 1) translate(-197.000000, -133.000000) translate(144.000000, 111.000000)">
                <g id="Mountain1LightBlue">
                    <polyline id="Mountain1Line3" stroke="#C2E8FF" stroke-width="3" stroke-linecap="round" stroke-linejoin="round" points="0.25 43.5 43.5 0 74.75 34"></polyline>
                    <path d="M4.54575055,31.5904583 L7.11489098,41.5 L7.11489098,41.5 L1.5,35.5531821 L2.61478963,31.5717906 C2.76370213,31.0399602 3.31555323,30.729544 3.84738358,30.8784565 C4.19035669,30.9744889 4.45636686,31.2456927 4.54575055,31.5904583 Z" id="Mountain1Tree" fill="#C2E8FF" transform="translate(4.307445, 35.460291) scale(-1, 1) translate(-4.307445, -35.460291) "></path>
                    <polyline id="Mountain1Line1" stroke="#C2E8FF" stroke-width="3" stroke-linecap="round" stroke-linejoin="round" points="67.75 23 79.5 12.5 105.75 39"></polyline>
                </g>
            </g>
            <g id="Tree3" transform="translate(205.000000, 131.500000)">
                <g id="Tree3LightBlue" fill="#C2E8FF">
                    <path d="M10.4209988,4.29236217 L16.259296,24.443436 C16.5666778,25.5043744 15.9557995,26.613617 14.8948612,26.9209988 C14.7139843,26.9734036 14.5266126,27 14.3382972,27 L2.6617028,27 C1.5571333,27 0.661702805,26.1045695 0.661702805,25 C0.661702805,24.8116846 0.688299176,24.6243129 0.74070397,24.443436 L6.57900117,4.29236217 C6.88638297,3.23142381 7.99562563,2.62054553 9.05656399,2.92792733 C9.71521023,3.11875451 10.2301717,3.63371594 10.4209988,4.29236217 Z" id="Tree3LightBluebkgd"></path>
                </g>
                <g id="Tree3DarkBlue" stroke="#8CD3F8" stroke-linecap="round" stroke-width="3">
                    <polygon id="Tree3DarkBlueOutline1" stroke-linejoin="round" points="8.5 0.161971831 17 27 -1.8172e-12 27"></polygon>
                    <path d="M8.5,3.16197183 C8.5,23.6275866 8.5,34.073596 8.5,34.5 C8.5,34.073596 8.5,23.6275866 8.5,3.16197183 Z" id="Tree3DarkBlueLine2"></path>
                    <path d="M8.5,14.6619718 C11.1666667,17.8925806 12.5,19.5592472 12.5,19.6619718 C12.5,19.5592472 11.1666667,17.8925806 8.5,14.6619718 Z" id="Tree3DarkBlueLine1" stroke-linejoin="round" transform="translate(10.500000, 17.161972) scale(-1, 1) translate(-10.500000, -17.161972) "></path>
                </g>
            </g>
            <g id="Tree1" transform="translate(181.000000, 114.000000)">
                <g id="Tree1LightBlue" transform="translate(0.500000, 0.000000)" fill="#C2E8FF">
                    <path d="M12.8239437,0 L25.0758365,41.9391718 C25.3855734,42.9994249 24.7771597,44.1100213 23.7169065,44.4197582 C23.5347184,44.4729817 23.3458815,44.5 23.1560783,44.5 L2.49180902,44.5 C1.38723952,44.5 0.491809024,43.6045695 0.491809024,42.5 C0.491809024,42.3101968 0.518827286,42.1213599 0.572050791,41.9391718 L12.8239437,0 L12.8239437,0 Z" id="Tree1LightBlueBkgd"></path>
                </g>
                <g id="Tree1DarkBlue" transform="translate(0.000000, 1.000000)" stroke="#8CD3F8" stroke-linecap="round" stroke-width="3">
                    <polygon id="Tree1DarkBlueOutine" stroke-linejoin="round" points="13.5 0 26.5 43.5 0.5 43.5"></polygon>
                    <path d="M13.5,3 C13.5,32.2486474 13.5,47.2486474 13.5,48 C13.5,47.2486474 13.5,32.2486474 13.5,3 Z" id="Tree1DarkBlueLine3"></path>
                    <path d="M8.82394366,19 C11.8239437,21.8726794 13.3239437,23.3726794 13.3239437,23.5 C13.3239437,23.3726794 11.8239437,21.8726794 8.82394366,19 Z" id="Tree1DarkBlueLine2" stroke-linejoin="round"></path>
                    <path d="M13.8239437,34 C18.4906103,28.539346 20.8239437,25.8726794 20.8239437,26 C20.8239437,25.8726794 18.4906103,28.539346 13.8239437,34 Z" id="Tree1DarkBlueLine1" stroke-linejoin="round"></path>
                </g>
            </g>
            <g id="Tree2" transform="translate(58.750000, 131.500000)">
                <g id="Tree2LightBlue" transform="translate(14.000000, 0.000000)" fill="#C2E8FF">
                    <path d="M10.4209988,4.29236217 L16.259296,24.443436 C16.5666778,25.5043744 15.9557995,26.613617 14.8948612,26.9209988 C14.7139843,26.9734036 14.5266126,27 14.3382972,27 L2.6617028,27 C1.5571333,27 0.661702805,26.1045695 0.661702805,25 C0.661702805,24.8116846 0.688299176,24.6243129 0.74070397,24.443436 L6.57900117,4.29236217 C6.88638297,3.23142381 7.99562563,2.62054553 9.05656399,2.92792733 C9.71521023,3.11875451 10.2301717,3.63371594 10.4209988,4.29236217 Z" id="Tree2LightBluebkgd"></path>
                </g>
                <g id="Tree2DarkBlue" stroke="#8CD3F8" stroke-width="3">
                    <polygon id="Tree2DarkBlueOutline1" stroke-linecap="round" stroke-linejoin="round" points="22.75 0.161971831 31.75 27 13.75 27"></polygon>
                    <path d="M22.75,2.75 C22.75,21.6569293 22.75,31.323596 22.75,31.75 C22.75,31.323596 22.75,21.6569293 22.75,2.75 Z" id="Tree2DarkBlueLine2"></path>
                    <path d="M23.2114258,17.1619718 L27.5,22.7269287 L23.2114258,17.1619718 Z" id="Tree2DarkBlueLine1" stroke-linecap="round" stroke-linejoin="round" transform="translate(25.355713, 19.944450) scale(-1, 1) translate(-25.355713, -19.944450) "></path>
                    <line x1="0.75" y1="33" x2="178.75" y2="33" id="HorizonLine2" stroke-linecap="round"></line>
                    <line x1="184.25" y1="33" x2="189.25" y2="33" id="HorizonLine1" stroke-linecap="round"></line>
                </g>
            </g>
            <g id="Balloon" transform="translate(75.500000, 29.000000)">
                <g id="BalloonLightBlue" fill="#C2E8FF">
                    <circle id="BalloonOval2Bkgd" cx="33" cy="33" r="33"></circle>
                    <ellipse id="BalloonOval1Bkgd" cx="33.25" cy="33" rx="19.25" ry="33"></ellipse>
                    <rect id="BalloonBasketBkgd" x="24.75" y="76.75" width="16" height="11"></rect>
                </g>
                <g id="BalloonWhite" transform="translate(2.000000, 1.000000)" fill="#FFFFFF">
                    <path d="M0.138427734,23.8894043 C2.36385091,18.0342611 5.90299479,13.2570801 10.7558594,9.55786133 C15.0600586,6.39868164 17.8532715,4.54663086 24.0454102,3.43798828 C26.0656374,3.07628611 28.8557889,2.00503469 31.5,2 C34.0173199,1.99520692 36.3682213,3.03177438 39.1206583,3.65812445 C42.3387109,4.39043096 45.6073206,5.65673625 48.6689453,7.69702148 C57.0998535,13.3154297 58.9782715,17.7473145 61.980957,23.8894043 C63.9827474,27.9841309 63.8216146,26.6553548 61.4975586,19.9030762 L57.578125,13.1889648 L49.6750488,5.91967773 L40.5,0.443115234 L29.1096191,0.443115234 L20.5,1 L11.3344727,6.90649414 L3.22119141,15.0354004 L0.138427734,21.5163574 L0.138427734,23.8894043 Z" id="BalloonHighlight2"></path>
                    <path d="M15.2474365,17.0247803 C15.2474365,17.0247803 18.6688232,8.52478027 23.8897705,4.9654541 C26.7548421,3.06717936 29.5997721,2.25736491 32.4245605,2.53601074 C34.6416016,2.74930827 36.9737549,3.77950033 39.4210205,5.62658691 C43.0919189,8.3972168 46.0673828,13.8986816 47.7158203,17.9138184 C48.8147786,20.5905762 48.1338298,18.2783203 45.6729736,10.9770508 C42.9652913,7.4523112 41.5203044,5.62019857 41.3380127,5.48071289 C41.155721,5.34122721 39.5256348,3.91251628 36.4477539,1.19458008 C34.3895464,0.444675647 32.8189867,0.0595031208 31.7360748,0.0390625 C30.653163,0.0186218792 29.0268233,0.343450981 26.8570557,1.0135498 L22.9085693,3.89111328 L18.7303467,8.15185547 C16.6864827,11.5515951 15.5996501,13.3204346 15.4698486,13.458374 C15.2751465,13.6652832 15.2474365,17.0247803 15.2474365,17.0247803 Z" id="BalloonHightlight1"></path>
                </g>
                <circle id="BalloonOval2" stroke="#8CD3F8" stroke-width="3" stroke-linecap="round" stroke-linejoin="round" cx="33" cy="33" r="33"></circle>
                <ellipse id="BalloonOval1" stroke="#8CD3F8" stroke-width="3" stroke-linecap="round" stroke-linejoin="round" cx="33.25" cy="33" rx="19.25" ry="33"></ellipse>
                <g id="BalloonDarkBlue" transform="translate(12.500000, 59.500000)" stroke="#8CD3F8" stroke-linecap="round" stroke-linejoin="round" stroke-width="3">
                    <rect id="BalloonBasket" x="11.5" y="17" width="18" height="11"></rect>
                    <line x1="39.5114746" y1="17" x2="28.5" y2="0.965087891" id="BalloonString4" transform="translate(34.005737, 8.982544) scale(-1, 1) translate(-34.005737, -8.982544) "></line>
                    <line x1="27" y1="17" x2="23.5" y2="6" id="BalloonString3" transform="translate(25.250000, 11.500000) scale(-1, 1) translate(-25.250000, -11.500000) "></line>
                    <line x1="17.5" y1="17" x2="14" y2="6" id="BalloonString2"></line>
                    <line x1="12.5" y1="17" x2="0.584228516" y2="0.0749511719" id="BalloonString1"></line>
                </g>
            </g>
            <g id="Balloon2" transform="translate(213.000000, 55.500000)" stroke="#C2E8FF" stroke-linecap="round" stroke-linejoin="round" stroke-width="3">
                <g id="Balloon2DarkBlue" transform="translate(0.250000, 0.250000)">
                    <circle id="BalloonOval2" cx="17.25" cy="17.25" r="17"></circle>
                    <ellipse id="BalloonOval1" cx="16.875" cy="17.75" rx="9.625" ry="16.5"></ellipse>
                    <rect id="BalloonBasket" x="12.25" y="39.75" width="10" height="6"></rect>
                    <line x1="26.270752" y1="39.5" x2="21.75" y2="31.7722168" id="BalloonString4" transform="translate(24.010376, 35.636108) scale(-1, 1) translate(-24.010376, -35.636108) "></line>
                    <line x1="12.75" y1="39.5" x2="8.25610352" y2="31.7734375" id="BalloonString1"></line>
                    <line x1="17.25" y1="39.2423096" x2="17.25" y2="34.2178936" id="Path-2"></line>
                </g>
            </g>
            <g id="Birds" transform="translate(42.000000, 92.000000)" stroke="#C2E8FF" stroke-linecap="round" stroke-width="3">
                <g id="BirdsLightBlue" transform="translate(15.921426, 12.785644) rotate(-15.000000) translate(-15.921426, -12.785644) translate(2.421426, 3.285644)">
                    <path d="M15.5180353,1.71764295 C15.5180353,1.71764295 20.2901141,0.335946526 21.3244212,5.34543313" id="BirdsLine4" transform="translate(18.421228, 3.444220) rotate(41.000000) translate(-18.421228, -3.444220) "></path>
                    <path d="M20.2141001,5.08986883 C20.2141001,5.08986883 24.9861789,3.7081724 26.020486,8.71765901" id="BirdsLine3" transform="translate(23.117293, 6.816446) scale(-1, 1) rotate(-41.000000) translate(-23.117293, -6.816446) "></path>
                    <path d="M0.365142392,14.7932757 C0.365142392,14.7932757 5.1372212,13.4115793 6.17152826,18.4210659" id="BirdsLine2"></path>
                    <path d="M6.36514239,14.7932757 C6.36514239,14.7932757 11.1372212,13.4115793 12.1715283,18.4210659" id="BirdsLine1" transform="translate(9.268335, 16.519853) scale(-1, 1) translate(-9.268335, -16.519853) "></path>
                </g>
            </g>
        </g>
    </g>
</svg>