<?xml version="1.0" encoding="UTF-8"?>
<svg width="220px" height="124px" viewBox="0 0 220 124" version="1.1" xmlns="http://www.w3.org/2000/svg" xmlns:xlink="http://www.w3.org/1999/xlink">
    <!-- Generator: Sketch 59.1 (86144) - https://sketch.com -->
    <title>NoEvents</title>
    <desc>Created with Sketch.</desc>
    <defs>
        <linearGradient x1="50%" y1="0%" x2="50%" y2="78.2164727%" id="linearGradient-1">
            <stop stop-color="#FFFFFF" offset="0%"></stop>
            <stop stop-color="#C2E8FF" offset="100%"></stop>
        </linearGradient>
    </defs>
    <g id="Symbols" stroke="none" stroke-width="1" fill="none" fill-rule="evenodd">
        <g id="NoEvents" transform="translate(-50.000000, -38.000000)">
            <rect id="Rectangle-" fill-opacity="0" fill="#D8D8D8" x="0" y="0" width="300" height="200"></rect>
            <g id="Bush" transform="translate(116.000000, 138.500000)" fill="#C2E8FF">
                <g id="BushLightBlue" transform="translate(0.147307, 0.027907)">
                    <path d="M124.211199,21.4604651 L41.2146301,21.4604651 C41.181557,21.0836482 41.1646586,20.7020036 41.1646586,20.3162791 C41.1646586,13.4114353 46.5796451,7.81395349 53.2593695,7.81395349 C55.0949807,7.81395349 56.8350828,8.23665812 58.3935493,8.99303604 C61.0297203,3.65519571 66.4013193,0 72.5991955,0 C79.3492097,0 85.1191713,4.33545022 87.4428958,10.4582674 C88.3033512,10.0160856 89.2732961,9.76744186 90.2994216,9.76744186 C91.4717785,9.76744186 92.5708016,10.0920029 93.5169886,10.6589432 C95.8822306,7.27860122 99.7306669,5.07906977 104.076319,5.07906977 C110.463575,5.07906977 115.776683,9.83076675 116.884917,16.0994676 C117.212544,16.0462396 117.548391,16.0186047 117.890481,16.0186047 C121.042719,16.0186047 123.664778,18.365073 124.211199,21.4604651 L124.211199,21.4604651 Z" id="Bush2LightBlueShape"></path>
                    <path d="M65.5967396,21.4422763 C64.2230415,18.1422048 61.0699499,15.8340473 57.3998271,15.8340473 C56.3886681,15.8340473 55.416755,16.009251 54.5104876,16.3321317 C52.7901831,13.6174276 49.8363302,11.8264372 46.4811009,11.8264372 C43.2720036,11.8264372 40.4300814,13.464817 38.6834412,15.9827551 C37.9847185,15.5604545 37.1731322,15.3186965 36.3073917,15.3186965 C35.5496375,15.3186965 34.8333705,15.5039055 34.1979573,15.8332764 C32.4819761,11.2725323 28.2210814,8.04315622 23.2364555,8.04315622 C18.6595619,8.04315622 14.6928423,10.765827 12.7461316,14.7418607 C11.5952646,14.1784513 10.3102662,13.8635885 8.95473787,13.8635885 C4.59031835,13.8635885 0.957052275,17.1276417 0.177803774,21.4422763 L65.5967396,21.4422763 L65.5967396,21.4422763 Z" id="Bush1LightBlueShape"></path>
                </g>
            </g>
            <g id="Tent" transform="translate(52.000000, 126.500000)">
                <g id="TentLightBlue" transform="translate(80.000000, 0.000000)" fill="#C2E8FF">
                    <polygon id="TentBkgd" points="16.7314453 0.169433594 49.6044922 0.169433594 66.5717773 33.581543 0.0786132812 33.581543"></polygon>
                </g>
                <g id="TentWhtie" transform="translate(98.000000, 1.000000)" fill="#FFFFFF">
                    <rect id="TentHighlight" x="0" y="0.5" width="33" height="3"></rect>
                </g>
                <g id="TentDarkblue" transform="translate(0.000000, 0.000000)" stroke="#8CD3F8" stroke-width="3">
                    <path d="M79.5,0 L96.5,34 L79.5,0 Z" id="TentOutline2" stroke-linecap="round" stroke-linejoin="round" transform="translate(88.000000, 17.000000) scale(-1, 1) translate(-88.000000, -17.000000) "></path>
                    <path d="M96.5,0 L128.890018,0 C129.264581,-6.88060106e-17 129.607738,0.209319657 129.779154,0.542356568 L146.249742,32.5423566 C146.502492,33.0334127 146.309306,33.6363863 145.81825,33.8891358 C145.676702,33.9619916 145.519804,34 145.360607,34 L114.609982,34 C114.235419,34 113.892262,33.7906803 113.720846,33.4576434 L96.5,0 L96.5,0 Z" id="TentOutline1" stroke-linecap="round" stroke-linejoin="round"></path>
                    <line x1="11" y1="34" x2="216" y2="34" id="HorizonLine2" stroke-linecap="round"></line>
                    <line x1="0" y1="34" x2="6" y2="34" id="HorizonLine1" stroke-linecap="round"></line>
                    <line x1="96.5" y1="3" x2="96.5" y2="34" id="TentLine3"></line>
                    <line x1="114.5" y1="27" x2="114.5" y2="33" id="TentLine2" stroke-linecap="round" stroke-linejoin="round"></line>
                    <line x1="78.5" y1="27" x2="78.5" y2="33" id="TentLine1" stroke-linecap="round" stroke-linejoin="round"></line>
                </g>
            </g>
            <g id="Lug" transform="translate(71.000000, 114.500000)">
                <g id="LugLightBlue" transform="translate(14.000000, 37.000000)" fill="#C2E8FF">
                    <ellipse id="Lug3Bkgd" cx="3.5" cy="3.97424893" rx="3.5" ry="3.51502146"></ellipse>
                    <ellipse id="Lug2Bkgd" cx="12.5" cy="3.97424893" rx="3.5" ry="3.51502146"></ellipse>
                    <ellipse id="Lug1Bkgd" cx="21" cy="3.97424893" rx="3.5" ry="3.51502146"></ellipse>
                </g>
                <g id="LugDarkBlue" stroke-width="3">
                    <path d="M23.7996602,31.9356223 C23.7996602,31.9356223 22.6617094,28.397776 27.5274409,28.397776 C32.3931723,28.3977761 30.322405,28.3977766 34.262549,28.397776 C38.202693,28.3977755 37.9098998,23.4770716 34.3897938,23.4447913 L13.8955018,23.4447913 C13.8955018,23.4447913 5.24336475,23.4770716 3.19425931,23.4447913 C-1.06575805,23.4770716 -1.06374804,17.076668 3.19425931,17.076668 L45.5238111,17.076668 C52.2231936,17.076668 52.0510731,9.26045331 45.6532845,9.29340616 C39.2554959,9.26045331 24.7216273,9.29340616 18.4529659,9.29340616 C16.6090318,9.29340616 13.3178431,9.09009502 13.3178431,5.04799064 C13.3178431,2.56038659 13.2135467,1.94055839 13.2135467,0.802575107" id="Smoke" stroke="url(#linearGradient-1)" stroke-linecap="round" transform="translate(25.250000, 16.369099) scale(-1, 1) translate(-25.250000, -16.369099) "></path>
                    <ellipse id="Lug3" stroke="#8CD3F8" cx="17.5" cy="40.9742489" rx="3.5" ry="3.51502146"></ellipse>
                    <ellipse id="Lug2" stroke="#8CD3F8" cx="26.5" cy="40.9742489" rx="3.5" ry="3.51502146"></ellipse>
                    <ellipse id="Lug1" stroke="#8CD3F8" cx="35" cy="40.9742489" rx="3.5" ry="3.51502146"></ellipse>
                </g>
            </g>
            <g id="Cloud" transform="translate(75.000000, 39.500000)" stroke="#C2E8FF" stroke-linecap="round" stroke-width="3">
                <g id="CloudLightBlue">
                    <line x1="123.15" y1="54.7438305" x2="122.28306" y2="58.1645182" id="26"></line>
                    <line x1="102.15" y1="54.7438305" x2="101.629836" y2="56.7962431" id="25"></line>
                    <line x1="112.65" y1="54.7438305" x2="110.91612" y2="61.5852059" id="24"></line>
                    <line x1="91.65" y1="54.7438305" x2="89.9161202" y2="61.5852059" id="23"></line>
                    <line x1="100.4" y1="61.8052575" x2="98.6661202" y2="68.646633" id="22"></line>
                    <line x1="97.25" y1="74.1627548" x2="96.0362842" y2="78.9517177" id="21"></line>
                    <line x1="109.5" y1="67.1013278" x2="106.379016" y2="79.4158036" id="20"></line>
                    <line x1="88.5" y1="67.1013278" x2="85.3790164" y2="79.4158036" id="19"></line>
                    <line x1="81.15" y1="54.7438305" x2="79.4161202" y2="61.5852059" id="18"></line>
                    <line x1="78" y1="67.1013278" x2="74.8790164" y2="79.4158036" id="17"></line>
                    <line x1="29.35" y1="48.3885461" x2="27.6161202" y2="55.2299216" id="16"></line>
                    <line x1="26.2" y1="60.7460435" x2="23.0790164" y2="73.0605193" id="15"></line>
                    <line x1="50.7" y1="49.0946888" x2="48.9661202" y2="55.9360643" id="14"></line>
                    <line x1="47.55" y1="61.4521862" x2="44.4290164" y2="73.766662" id="13"></line>
                    <line x1="60.85" y1="53.6846164" x2="58.7693443" y2="61.894267" id="12"></line>
                    <line x1="57" y1="67.1013278" x2="54.9193443" y2="75.3109784" id="11"></line>
                    <line x1="53.5" y1="81.2241819" x2="52.0262022" y2="87.039351" id="10"></line>
                    <line x1="70.5693988" y1="54.3907591" x2="63.0270218" y2="84.1507424" id="9"></line>
                    <line x1="61.7169399" y1="89.344823" x2="60.85" y2="92.7655107" id="8" opacity="0.800000012"></line>
                    <line x1="120.35" y1="66.3951851" x2="118.789508" y2="72.552423" id="7" opacity="0.699999988"></line>
                    <line x1="40.2" y1="48.7416175" x2="39.3330601" y2="52.1623052" id="6"></line>
                    <line x1="37.4" y1="60.3929721" x2="35.8395082" y2="66.55021" id="5"></line>
                    <line x1="18.5" y1="47.6824034" x2="17.9798361" y2="49.7348161" id="4"></line>
                    <line x1="16.75" y1="54.7438305" x2="15.0161202" y2="61.5852059" id="3"></line>
                    <line x1="12.9" y1="68.5136132" x2="11.6862842" y2="73.302576" id="2"></line>
                    <line x1="117.2" y1="78.0465397" x2="114.772568" y2="87.6244654" id="1"></line>
                    <path d="M111.9923,21.4372129 C112.941578,21.1531631 113.951961,21 115,21 C118.485806,21 121.555045,22.6943607 123.344938,25.2634428 C125.819317,22.6500466 129.451548,21 133.5,21 C140.955844,21 147,26.5964406 147,33.5 C147,40.2485633 141.2242,45.7480429 134,45.9915855 L134,46 L69,46 L69,45.9387486 C68.2114082,45.9792728 67.3788798,46 66.5,46 C58.961546,46 55.9617272,43.6179572 54.7729774,40 L8,40 L8,39.9863889 C3.53831026,39.7428041 0,36.260304 0,32 C0,27.581722 3.80557963,24 8.5,24 C9.9896146,24 11.3897323,24.3606416 12.6071623,24.9942156 C13.3374946,19.9085947 17.7122967,16 23,16 C27.3146065,16 31.0213971,18.6023689 32.63637,22.3231049 C33.9204421,20.9028425 35.8466756,20 38,20 C39.6564423,20 41.1785049,20.5342514 42.3772485,21.4273106 C43.8711566,15.4518939 49.6271696,11 56.5,11 C59.9606183,11 63.1380855,12.1287063 65.6308746,14.0122836 C69.1186247,5.81108817 77.8189929,0 88,0 C101.049572,0 111.666603,9.54703523 111.9923,21.4372129 Z" id="CloudOutline" fill="#FFFFFF" stroke-linejoin="round"></path>
                    <path d="M54.6474609,40.4501953 C53.7096354,37.0255811 54.0672201,34.2005486 55.7202148,31.9750977 C56.3871898,31.0771396 58.3837891,29.644043 60.1943359,29.6938477" id="CloudLine1" stroke-linejoin="round"></path>
                </g>
            </g>
            <g id="Tree3" transform="translate(214.000000, 125.500000)">
                <g id="Tree3LightBlue" fill="#C2E8FF">
                    <path d="M10.4209988,4.29236217 L16.259296,24.443436 C16.5666778,25.5043744 15.9557995,26.613617 14.8948612,26.9209988 C14.7139843,26.9734036 14.5266126,27 14.3382972,27 L2.6617028,27 C1.5571333,27 0.661702805,26.1045695 0.661702805,25 C0.661702805,24.8116846 0.688299176,24.6243129 0.74070397,24.443436 L6.57900117,4.29236217 C6.88638297,3.23142381 7.99562563,2.62054553 9.05656399,2.92792733 C9.71521023,3.11875451 10.2301717,3.63371594 10.4209988,4.29236217 Z" id="Tree3LightBluebkgd"></path>
                </g>
                <g id="Tree3DarkBlue" stroke="#8CD3F8" stroke-linecap="round" stroke-width="3">
                    <polygon id="Tree3DarkBlueOutline1" stroke-linejoin="round" points="8.5 0.161971831 17 27 -1.8172e-12 27"></polygon>
                    <path d="M8.5,3.16197183 C8.5,23.6275866 8.5,34.073596 8.5,34.5 C8.5,34.073596 8.5,23.6275866 8.5,3.16197183 Z" id="Tree3DarkBlueLine2"></path>
                    <path d="M8.5,16.6619718 C11.1666667,19.8925806 12.5,21.5592472 12.5,21.6619718 C12.5,21.5592472 11.1666667,19.8925806 8.5,16.6619718 Z" id="Tree3DarkBlueLine1" stroke-linejoin="round" transform="translate(10.500000, 19.161972) scale(-1, 1) translate(-10.500000, -19.161972) "></path>
                </g>
            </g>
            <g id="Tree1" transform="translate(191.000000, 108.000000)">
                <g id="Tree1LightBlue" transform="translate(0.500000, 0.000000)" fill="#C2E8FF">
                    <path d="M12.8239437,0 L25.0758365,41.9391718 C25.3855734,42.9994249 24.7771597,44.1100213 23.7169065,44.4197582 C23.5347184,44.4729817 23.3458815,44.5 23.1560783,44.5 L2.49180902,44.5 C1.38723952,44.5 0.491809024,43.6045695 0.491809024,42.5 C0.491809024,42.3101968 0.518827286,42.1213599 0.572050791,41.9391718 L12.8239437,0 L12.8239437,0 Z" id="Tree1LightBlueBkgd"></path>
                </g>
                <g id="Tree1DarkBlue" transform="translate(0.000000, 1.000000)" stroke="#8CD3F8" stroke-linecap="round" stroke-width="3">
                    <polygon id="Tree1DarkBlueOutine" stroke-linejoin="round" points="13.5 0 26.5 43.5 0.5 43.5"></polygon>
                    <path d="M13.5,3 C13.5,34.1985572 13.5,50.1985572 13.5,51 C13.5,50.1985572 13.5,34.1985572 13.5,3 Z" id="Tree1DarkBlueLine3"></path>
                    <path d="M7.82394366,22 C11.4906103,25.539346 13.3239437,27.3726794 13.3239437,27.5 C13.3239437,27.3726794 11.4906103,25.539346 7.82394366,22 Z" id="Tree1DarkBlueLine2" stroke-linejoin="round"></path>
                    <path d="M13.8239437,34 C18.4906103,28.539346 20.8239437,25.8726794 20.8239437,26 C20.8239437,25.8726794 18.4906103,28.539346 13.8239437,34 Z" id="Tree1DarkBlueLine1" stroke-linejoin="round"></path>
                </g>
            </g>
        </g>
    </g>
</svg>