<?xml version="1.0" encoding="UTF-8"?>
<svg width="300px" height="200px" viewBox="0 0 300 200" version="1.1" xmlns="http://www.w3.org/2000/svg" xmlns:xlink="http://www.w3.org/1999/xlink">
    <!-- Generator: Sketch 59.1 (86144) - https://sketch.com -->
    <title> Empty State / z-nested / Research / Small</title>
    <desc>Created with Sketch.</desc>
    <g id="-Empty-State-/-z-nested-/-Research-/-Small" stroke="none" stroke-width="1" fill="none" fill-rule="evenodd">
        <g id="CampingTrip">
            <rect id="Rectangle-" fill-opacity="0" fill="#D8D8D8" x="0" y="0" width="300" height="200"></rect>
            <g id="Mountain" transform="translate(137.750000, 125.000000) scale(-1, 1) translate(-137.750000, -125.000000) translate(77.250000, 97.500000)">
                <g id="MountianLightBlue">
                    <polyline id="MountianLightBlueLine4" stroke="#C2E8FF" stroke-width="3" stroke-linecap="round" stroke-linejoin="round" points="0.25 48.5 48.75 0 79.75 31.5"></polyline>
                    <polyline id="MountianLightBlueLine1" stroke="#C2E8FF" stroke-width="3" stroke-linecap="round" stroke-linejoin="round" points="72.75 23 83.75 12.5 120.75 49.5"></polyline>
                    <path d="M74.99867,15.0372884 L77.5742779,23.5 L77.5742779,23.5 L75.2573834,22.0180664 L71.75,19.136913 L73.0911495,15.0187879 C73.2621712,14.4936498 73.8265202,14.2065817 74.3516583,14.3776034 C74.662083,14.4786994 74.9036139,14.7249613 74.99867,15.0372884 Z" id="MountainTree1" fill="#C2E8FF" transform="translate(74.662139, 18.308514) scale(-1, 1) translate(-74.662139, -18.308514) "></path>
                    <path d="M10.7556657,28.2319794 L14.2715764,40.8581779 L14.2715764,40.8581779 L7.24077604,34.6472002 L8.82160689,28.2599845 C8.95429341,27.7238757 9.49645921,27.3968372 10.0325681,27.5295238 C10.3826295,27.6161637 10.6589265,27.8845733 10.7556657,28.2319794 Z" id="Triangle" fill="#C2E8FF" transform="translate(10.756176, 34.179089) scale(-1, 1) translate(-10.756176, -34.179089) "></path>
                    <path d="M111.855519,33.9531312 L113.485348,39.8061099 L113.485348,39.8061099 L109.120232,37.2184294 L109.92146,33.9811363 C110.054146,33.4450274 110.596312,33.117989 111.132421,33.2506755 C111.482483,33.3373154 111.75878,33.6057251 111.855519,33.9531312 Z" id="Triangle" fill="#C2E8FF"></path>
                    <polyline id="Path-10" stroke="#C2E8FF" stroke-width="3" stroke-linecap="round" stroke-linejoin="round" points="60.2089844 12 52.9746083 12 45.8224195 19.0896889 41.1732515 14.440521 36.8448233 18.7689492 34.3027606 16.2268866"></polyline>
                </g>
            </g>
            <g id="Bush1" transform="translate(114.000000, 135.250000)">
                <g id="Group-2" transform="translate(5.169884, 0.137630)"></g>
                <g id="Bush1LightBlue">
                    <path d="M70.4810708,13.2322245 C69.1128675,10.0071547 65.9723882,7.7514553 62.316946,7.7514553 C61.3098316,7.7514553 60.3418061,7.92267707 59.4391638,8.23821958 C57.7257405,5.58521329 54.783703,3.83492723 51.4418946,3.83492723 C48.2456337,3.83492723 45.4150793,5.43607116 43.6754255,7.89678339 C42.9794978,7.4840805 42.1711578,7.24781705 41.3088803,7.24781705 C40.5541571,7.24781705 39.8407551,7.42881672 39.2078836,7.75070193 C37.4987664,3.29361107 33.2549152,0.137629938 28.2902279,0.137629938 C23.7316418,0.137629938 19.7807891,2.79842183 17.8418652,6.68409115 C16.6956017,6.13348651 15.4157432,5.82577963 14.0656371,5.82577963 C9.71867522,5.82577963 6.09994221,9.01564989 5.32381071,13.2322245 L70.4810708,13.2322245 L70.4810708,13.2322245 Z" id="Bush1LightBlueShape" fill="#C2E8FF"></path>
                    <line x1="0" y1="12.25" x2="65" y2="12.25" id="Bush1LightBlueLine" stroke="#C2E8FF" stroke-width="3" stroke-linecap="round"></line>
                </g>
            </g>
            <g id="Bush4" transform="translate(26.000000, 135.250000)">
                <g id="Bush4LightBlue">
                    <path d="M104.481071,13.2322245 C103.112867,10.0071547 99.9723882,7.7514553 96.316946,7.7514553 C95.3098316,7.7514553 94.3418061,7.92267707 93.4391638,8.23821958 C91.7257405,5.58521329 88.783703,3.83492723 85.4418946,3.83492723 C82.2456337,3.83492723 79.4150793,5.43607116 77.6754255,7.89678339 C76.9794978,7.4840805 76.1711578,7.24781705 75.3088803,7.24781705 C74.5541571,7.24781705 73.8407551,7.42881672 73.2078836,7.75070193 C71.4987664,3.29361107 67.2549152,0.137629938 62.2902279,0.137629938 C57.7316418,0.137629938 53.7807891,2.79842183 51.8418652,6.68409115 C50.6956017,6.13348651 49.4157432,5.82577963 48.0656371,5.82577963 C43.7186752,5.82577963 40.0999422,9.01564989 39.3238107,13.2322245 L104.481071,13.2322245 L104.481071,13.2322245 Z" id="Bush4LightBlueShape" fill="#C2E8FF"></path>
                    <line x1="14" y1="12.25" x2="99" y2="12.25" id="Bush4LightBlueLine" stroke="#C2E8FF" stroke-width="3" stroke-linecap="round"></line>
                    <line x1="0" y1="12.25" x2="8" y2="12.25" id="Bush4LightBlueLine" stroke="#C2E8FF" stroke-width="3" stroke-linecap="round"></line>
                    <line x1="23" y1="12.25" x2="28.5" y2="12.25" id="2" stroke="#C2E8FF" stroke-width="3" stroke-linecap="round"></line>
                </g>
            </g>
            <g id="Bush2" transform="translate(175.500000, 127.500000)">
                <g id="Bush2LightBlue" transform="translate(0.146718, 0.027273)">
                    <path d="M82.7143538,20.9727273 L0.0497716281,20.9727273 C0.0168307478,20.6044744 0,20.2315035 0,19.8545455 C0,13.10663 5.39332657,7.63636364 12.046332,7.63636364 C13.8746008,7.63636364 15.6077425,8.04946135 17.1599751,8.78864886 C19.7856014,3.57212308 25.135714,0 31.3087987,0 C38.0318128,0 43.7786947,4.23691726 46.0931242,10.2205795 C46.9501377,9.78844733 47.916203,9.54545455 48.9382239,9.54545455 C50.1058914,9.54545455 51.2005184,9.86263918 52.1429206,10.4166944 C54.4987017,7.11317846 58.3317442,4.96363636 62.6600141,4.96363636 C69.0217205,4.96363636 74.313576,9.60734023 75.4173776,15.7335706 C75.7436941,15.6815523 76.078197,15.6545455 76.4189189,15.6545455 C79.5585481,15.6545455 82.170119,17.9476849 82.7143538,20.9727273 L82.7143538,20.9727273 Z" id="Bush2LightBlueShape" fill="#C2E8FF"></path>
                    <line x1="16.3532819" y1="19.9727273" x2="86.8532819" y2="19.9727273" id="Bush2LightBlueLine" stroke="#C2E8FF" stroke-width="3" stroke-linecap="round"></line>
                </g>
            </g>
            <g id="Bush3" transform="translate(69.500000, 127.500000)">
                <g id="Bush3LightBlue" transform="translate(0.146718, 0.027273)">
                    <path d="M82.7143538,20.9727273 L0.0497716281,20.9727273 C0.0168307478,20.6044744 0,20.2315035 0,19.8545455 C0,13.10663 5.39332657,7.63636364 12.046332,7.63636364 C13.8746008,7.63636364 15.6077425,8.04946135 17.1599751,8.78864886 C19.7856014,3.57212308 25.135714,0 31.3087987,0 C38.0318128,0 43.7786947,4.23691726 46.0931242,10.2205795 C46.9501377,9.78844733 47.916203,9.54545455 48.9382239,9.54545455 C50.1058914,9.54545455 51.2005184,9.86263918 52.1429206,10.4166944 C54.4987017,7.11317846 58.3317442,4.96363636 62.6600141,4.96363636 C69.0217205,4.96363636 74.313576,9.60734023 75.4173776,15.7335706 C75.7436941,15.6815523 76.078197,15.6545455 76.4189189,15.6545455 C79.5585481,15.6545455 82.170119,17.9476849 82.7143538,20.9727273 L82.7143538,20.9727273 Z" id="Bush3LightBlueShape" fill="#C2E8FF"></path>
                    <line x1="16.3532819" y1="19.9727273" x2="86.8532819" y2="19.9727273" id="Bush3LightBlueLine" stroke="#C2E8FF" stroke-width="3" stroke-linecap="round"></line>
                    <line x1="91.3532819" y1="19.9727273" x2="96.8532819" y2="19.9727273" id="Bush3LightBlueLine2" stroke="#C2E8FF" stroke-width="3" stroke-linecap="round"></line>
                </g>
            </g>
            <g id="Tree2" transform="translate(235.000000, 117.500000)">
                <g id="Tree2LightBlue" fill="#C2E8FF">
                    <path d="M10.4209988,4.29236217 L16.259296,24.443436 C16.5666778,25.5043744 15.9557995,26.613617 14.8948612,26.9209988 C14.7139843,26.9734036 14.5266126,27 14.3382972,27 L2.6617028,27 C1.5571333,27 0.661702805,26.1045695 0.661702805,25 C0.661702805,24.8116846 0.688299176,24.6243129 0.74070397,24.443436 L6.57900117,4.29236217 C6.88638297,3.23142381 7.99562563,2.62054553 9.05656399,2.92792733 C9.71521023,3.11875451 10.2301717,3.63371594 10.4209988,4.29236217 Z" id="Tree2LightBluebkgd"></path>
                </g>
                <g id="Tree2DarkBlue" stroke="#8CD3F8" stroke-linecap="round" stroke-width="3">
                    <polygon id="Tree2DarkBlueOutline1" stroke-linejoin="round" points="8.5 0.161971831 17 27 -1.8172e-12 27"></polygon>
                    <path d="M8.5,3.16197183 C8.5,21.6275866 8.5,31.073596 8.5,31.5 C8.5,31.073596 8.5,21.6275866 8.5,3.16197183 Z" id="Tree2DarkBlueLine2"></path>
                    <path d="M8.5,14.6619718 C11.1666667,17.8925806 12.5,19.5592472 12.5,19.6619718 C12.5,19.5592472 11.1666667,17.8925806 8.5,14.6619718 Z" id="Tree2DarkBlueLine1" stroke-linejoin="round" transform="translate(10.500000, 17.161972) scale(-1, 1) translate(-10.500000, -17.161972) "></path>
                </g>
            </g>
            <g id="Tree1" transform="translate(214.000000, 100.000000)">
                <g id="Tree1LightBlue" transform="translate(0.500000, 0.000000)" fill="#C2E8FF">
                    <path d="M12.8239437,0 L25.0758365,41.9391718 C25.3855734,42.9994249 24.7771597,44.1100213 23.7169065,44.4197582 C23.5347184,44.4729817 23.3458815,44.5 23.1560783,44.5 L2.49180902,44.5 C1.38723952,44.5 0.491809024,43.6045695 0.491809024,42.5 C0.491809024,42.3101968 0.518827286,42.1213599 0.572050791,41.9391718 L12.8239437,0 L12.8239437,0 Z" id="Tree1LightBlueBkgd"></path>
                </g>
                <g id="Tree1DarkBlue" transform="translate(0.000000, 1.000000)" stroke="#8CD3F8" stroke-linecap="round" stroke-width="3">
                    <polygon id="Tree1DarkBlueOutine" stroke-linejoin="round" points="13.5 0 26.5 43.5 0.5 43.5"></polygon>
                    <path d="M13.5,3 C13.5,32.2486474 13.5,47.2486474 13.5,48 C13.5,47.2486474 13.5,32.2486474 13.5,3 Z" id="Tree1DarkBlueLine3"></path>
                    <path d="M7.82394366,21 C11.4906103,24.539346 13.3239437,26.3726794 13.3239437,26.5 C13.3239437,26.3726794 11.4906103,24.539346 7.82394366,21 Z" id="Tree1DarkBlueLine2" stroke-linejoin="round"></path>
                    <path d="M13.8239437,34 C18.4906103,28.539346 20.8239437,25.8726794 20.8239437,26 C20.8239437,25.8726794 18.4906103,28.539346 13.8239437,34 Z" id="Tree1DarkBlueLine1" stroke-linejoin="round"></path>
                </g>
            </g>
            <g id="Camper" transform="translate(145.000000, 117.622296)">
                <g id="CamperLightBlue" transform="translate(15.927419, 2.274194)" fill="#C2E8FF">
                    <path d="M1.28352602,8.56969821 L0.116966986,14.1738478 L0.116966986,31.2410731 L42.0051466,31.2410731 L40.130564,34.687244 L61.0256584,34.687244 L60.6514263,18.6761435 L56.9563894,11.0253827 L48.1835544,6.71720246 C37.7250329,6.44987898 27.9973823,6.31621724 19.0006025,6.31621724 C10.0038227,6.31621724 4.09813053,7.06737756 1.28352602,8.56969821 Z" id="CamperLightBlueBkgd"></path>
                    <path d="M19.5201613,0 L32.7217742,0 C33.8263437,-1.18396092e-15 34.7217742,0.8954305 34.7217742,2 L34.7217742,4.37096774 C34.7217742,5.47553724 33.8263437,6.37096774 32.7217742,6.37096774 L19.5201613,6.37096774 C18.4155918,6.37096774 17.5201613,5.47553724 17.5201613,4.37096774 L17.5201613,2 C17.5201613,0.8954305 18.4155918,2.02906125e-16 19.5201613,0 Z" id="CamperLightBlueVentBkgd"></path>
                </g>
                <g id="CamperWhite" transform="translate(15.290323, 8.282258)" fill="#FFFFFF">
                    <polygon id="CamperWhiteBodyBkgd" points="0.40409605 25.7341624 42.7875189 25.7341624 40.893027 28.6832236 61.6042717 29.3355634 59.3439469 34.5745023 53.9995511 36.4926364 7.05534904 36.9004654 0.40409605 36.4926364"></polygon>
                    <circle id="CamperWheel" cx="42.0483871" cy="37.6330645" r="7.00806452"></circle>
                    <path d="M0.973376859,7.21306782 C3.13602177,4.48447392 5.32956753,3.11193329 7.55401414,3.09544592 C9.77846076,3.07895855 22.8144755,3.07895855 46.6620584,3.09544592 C52.9363778,3.35788218 57.6277571,6.53475263 60.7361962,12.6260573 C63.8446353,18.7173619 63.1740972,16.564568 58.7245818,6.16767539 C56.3742505,3.89117432 55.1589034,2.72274879 55.0785404,2.6623988 C54.9981775,2.60204881 52.7077814,1.80712956 48.2073522,0.27764105 L37.1382623,0.27764105 L7.35289937,0.27764105 L3.09791417,1.65713599 L0.973376859,4.02633962 L0.973376859,7.21306782 Z" id="CamperHighlight"></path>
                </g>
                <g id="CamperDarkBlue" stroke="#8CD3F8" stroke-width="3">
                    <path d="M69.125,44.877704 C73.347306,44.877704 77.5,40.581177 77.5,36.358871 L77.5,22.9798387 C77.5,14.5352267 69.9244507,7.87770398 61.4798387,7.87770398 L23.2540323,7.87770398 C19.0317263,7.87770398 15.5,11.1123714 15.5,15.3346774 L15.5,44.877704 L50.3306452,44.877704 C50.3306452,48.7481511 53.4682625,51.9677419 57.3387097,51.9677419 C61.2091568,51.9677419 64.3467742,48.7481511 64.3467742,44.877704 L69.125,44.877704 Z" id="CamperShape" stroke-linecap="round" stroke-linejoin="round"></path>
                    <path d="M35.5,0.877703985 L48.5,0.877703985 C49.6045695,0.877703985 50.5,1.77313449 50.5,2.87770398 L50.5,7.87770398 L50.5,7.87770398 L33.5,7.87770398 L33.5,2.87770398 C33.5,1.77313449 34.3954305,0.877703985 35.5,0.877703985 Z" id="CamperDarkBlueVent"></path>
                    <path d="M25.5,17.877704 L38.5,17.877704 C39.0522847,17.877704 39.5,18.3254192 39.5,18.877704 L39.5,43.877704 C39.5,44.4299887 39.0522847,44.877704 38.5,44.877704 L25.5,44.877704 C24.9477153,44.877704 24.5,44.4299887 24.5,43.877704 L24.5,18.877704 C24.5,18.3254192 24.9477153,17.877704 25.5,17.877704 Z" id="CamperDarkBlueDoor"></path>
                    <path d="M48.5,17.877704 L65.5,17.877704 C66.0522847,17.877704 66.5,18.3254192 66.5,18.877704 L66.5,24.877704 C66.5,25.4299887 66.0522847,25.877704 65.5,25.877704 L48.5,25.877704 C47.9477153,25.877704 47.5,25.4299887 47.5,24.877704 L47.5,18.877704 C47.5,18.3254192 47.9477153,17.877704 48.5,17.877704 Z" id="CamperDarkBlueWindow"></path>
                    <polyline id="CamperDarkBlueLine2" points="15.9274194 32.877704 57.9758065 32.877704 55.4238388 36.877704 76.7701613 36.877704"></polyline>
                    <line x1="66.8982721" y1="44.877704" x2="0" y2="44.877704" id="CamperDarkBlueLine1" stroke-linecap="round"></line>
                    <line x1="7.5" y1="38.2701613" x2="7.5" y2="51.0120968" id="CamperDarkBlueLine3" stroke-linecap="round"></line>
                </g>
            </g>
            <path d="M49.6920303,143.003983 C50.0192672,143.204903 50.0688485,143.482454 49.9201045,143.745053 C49.716821,144.10671 48.8729465,144.288006 47.8694201,143.762809 C47.8664452,144.136614 47.8545457,144.556211 47.829755,145.045897 C47.8148806,145.326251 47.6185385,145.991625 47.7990146,146.161707 C48.2353304,146.572893 48.3741582,146.909319 48.2749955,147.34013 C48.220456,147.578431 47.8763615,147.75412 47.4569033,147.860654 C47.1108255,147.968123 46.6864092,148.040081 46.2520766,147.9756 L46.251085,147.9756 C45.1444294,147.890559 44.7061303,147.680293 44.7279461,147.227988 C44.7299294,147.165376 44.7418289,147.097156 44.762653,147.02146 C44.8518994,146.706529 44.930238,146.364497 44.9292463,146.118719 C44.9282547,146.036482 44.9203217,145.964525 44.8985059,145.908454 C44.8786734,145.852383 44.7854604,145.669218 44.645641,145.572963 C44.6109341,145.5496 44.5732523,145.53091 44.5325956,145.52063 C44.4106255,145.490726 44.2658479,145.540255 44.1091709,145.759866 C44.0685142,145.815937 44.0248826,145.900978 44.0109999,145.99256 C43.9971171,146.084142 44.0109999,146.182266 44.0893384,146.264504 C44.1339616,146.312164 44.1686685,146.366366 44.1954424,146.424306 C44.2212247,146.482246 44.239074,146.543923 44.2479987,146.608405 C44.2985717,146.993425 44.0199245,147.455075 43.4041242,147.583103 C43.13341,147.63824 42.8815368,147.67562 42.6475129,147.693376 C41.945441,147.745709 41.4089709,147.625157 41.0529768,147.32985 C40.8139947,147.133602 41.0123201,146.297212 41.2156036,145.576701 C39.7579121,145.049635 39.4624073,144.00952 39.4624073,144.00952 C39.7906358,144.178668 40.1962112,144.55808 40.2576921,144.333797 C40.3191729,144.111382 38.0295064,142.73017 39.4852147,140.274266 C39.4138176,141.744258 40.1486131,141.961065 40.284466,141.976017 C40.4193272,141.991904 40.3846203,141.789114 40.3052902,141.46951 C40.7882124,141.605015 41.1570977,142.012463 41.4248369,142.34515 C41.4367364,142.29749 41.4426862,142.243288 41.4545857,142.196562 C41.4397113,141.981624 41.4863178,141.70968 41.5785391,141.419046 C41.746124,140.898522 42.0684028,140.326599 42.4481959,139.908871 C42.3460583,139.862145 42.2528453,139.814485 42.1804566,139.769629 C40.741606,138.86315 38.4727637,136.501632 41.0539684,133.318676 C41.1888297,133.153267 41.3336072,133.001875 41.4892927,132.862633 C41.2453524,129.996477 42.9906158,131.128174 43.7670596,131.763644 C45.0373337,131.503849 46.4305695,131.650567 47.5987059,132.108479 C48.4792706,131.523473 50.1501619,130.73194 49.6404657,133.544828 C49.6404657,133.544828 50.6965483,137.208125 48.0617957,139.164998 C47.6006892,139.507965 47.1286748,139.760283 46.6636018,139.940645 C46.6953338,139.990174 46.7111999,140.024751 46.7191329,140.047179 C46.7290492,140.058394 46.7379738,140.069608 46.7488817,140.081756 C47.5223507,140.23782 47.6413459,140.823761 47.6413459,140.823761 C47.6363878,140.956462 47.6582035,141.091966 47.6909272,141.275131 C47.7623244,141.376059 47.8337215,141.477921 47.9071019,141.588194 C47.9566832,141.66202 48.0270888,141.74893 48.0994775,141.836774 C48.4663795,142.019939 48.9106283,142.059189 48.9175697,142.060123 C48.9820255,142.054516 49.0593723,142.069469 49.1020123,142.077879 C49.3062874,142.116194 49.7178126,142.108718 49.7902014,142.448881 C49.8229251,142.603076 49.7049215,142.687183 49.6265829,142.764747 C49.5591523,142.830163 49.6107169,142.954454 49.6920303,143.003983 Z" id="Fill-4" fill="#C2E8FF" fill-rule="nonzero"></path>
            <path d="M64.4178867,116.198852 C64.8543499,116.669306 64.052586,117.46546 64.052586,117.46546 L64.0449456,117.453807 C64.1832639,118.10066 64.2571053,118.912738 64.3165067,119.590688 C64.4095094,120.65213 64.9575452,122.115374 65.1451282,122.591683 L65.162377,122.565589 L65.162377,122.565589 C65.162377,122.565589 68.9781075,125.286532 69.7869195,126.697494 C70.4517084,127.857046 70.0644271,128.523527 69.4900916,129.39058 C69.0193824,130.100936 69.6709985,129.954686 69.9853901,130.099543 C70.4297537,130.304989 70.7300943,132.321147 68.9543964,132.716022 C68.0571523,132.915548 67.2146174,132.490779 66.567958,131.888252 C66.6479262,132.169018 66.7327065,132.458826 66.8220118,132.756586 C67.522571,135.092175 67.9884735,138.946553 68.8254609,141.961824 C69.3145563,143.730574 70.3261719,144.637255 70.3261719,145.707951 C70.3261719,147.136859 68.7122255,147.848689 66.3752093,147.581015 C65.0443515,147.428808 64.5388848,146.83179 64.3165067,145.172603 C64.0702537,143.34284 61.4214989,142.873098 60.0872305,142.817988 C57.937121,142.728763 55.1362487,143.995624 55.0243775,145.333339 C54.9356991,146.406004 55.0734917,147.542307 52.9656749,147.902487 C50.4615341,148.330897 49.0706479,147.266104 49.0706479,146.297097 C49.0706479,145.720417 49.7691607,143.903119 50.7146085,141.709896 C52.2337373,138.178958 54.3886218,133.670484 55.3033733,131.77905 C56.0176418,130.301842 56.5083578,128.568573 56.9080338,127.012751 C56.0747249,126.452011 55.1168372,125.594541 54.2269316,124.212889 C53.8496655,123.623342 53.2104846,121.618224 53.0625637,119.795212 C52.6920831,118.034429 52.983175,116.143291 54.8505062,116.01228 C55.987054,115.930398 56.0772993,117.115389 55.7712795,118.663935 C55.7672083,118.672451 55.7672083,118.680311 55.7672083,118.688827 C55.7156396,120.215756 55.8649175,121.176718 55.9192004,121.339172 C56.2733962,121.943131 57.0279282,122.4318 57.6304682,122.769152 C57.8259246,122.798946 58.0185958,122.809199 58.1987341,122.809919 C58.6858461,121.544272 58.9774779,119.006037 59.3825537,117.577508 C59.1965459,117.360712 58.7552138,116.767038 59.1101999,116.393091 C59.4505541,116.034385 59.8638014,116.274869 60.0751386,116.44482 C60.9492576,115.983919 62.8100797,116.144467 63.3841883,116.297703 C63.5596508,116.139991 64.0394426,115.791552 64.4178867,116.198852 Z M65.24737,125.765633 L65.2614222,125.879272 C65.323466,126.373792 65.4099386,126.935449 65.5285237,127.570081 C65.6214553,127.352138 65.7394263,127.110884 65.8851265,126.843047 C66.042549,126.550297 65.6807366,126.155723 65.24737,125.765633 Z" id="Combined-Shape" fill="#C2E8FF" fill-rule="nonzero"></path>
            <path d="M202.97785,34.0999112 C214.57583,34.0999112 223.97785,43.5019314 223.97785,55.0999112 C223.97785,66.6978909 214.57583,76.0999112 202.97785,76.0999112 C195.242986,76.0999112 188.484831,71.9181248 184.840898,65.6920658 C186.820802,66.9126647 189.152701,67.6162217 191.648924,67.6162217 C198.828626,67.6162217 204.648924,61.7959234 204.648924,54.6162217 C204.648924,47.4365199 198.828626,41.6162217 191.648924,41.6162217 C189.551286,41.6162217 187.569685,42.1130354 185.815369,42.9954144 C189.617964,37.6137782 195.887553,34.0999112 202.97785,34.0999112 Z" id="Combined-Shape" stroke="#C2E8FF" stroke-width="3" stroke-linecap="round" stroke-linejoin="round" transform="translate(204.409869, 55.099911) rotate(25.000000) translate(-204.409869, -55.099911) "></path>
            <circle id="Oval-10" fill="#C2E8FF" cx="131.5" cy="82.5" r="2.5"></circle>
            <circle id="Oval-10" fill="#C2E8FF" cx="59.5" cy="87.5" r="2.5"></circle>
            <circle id="Oval-10" fill="#C2E8FF" cx="243.5" cy="85.5" r="2.5"></circle>
            <circle id="Oval-10" fill="#C2E8FF" cx="202.5" cy="107.5" r="2.5"></circle>
            <circle id="Oval-10" fill="#C2E8FF" cx="177.5" cy="75.5" r="2.5"></circle>
            <polygon id="Star" stroke="#C2E8FF" stroke-width="3" stroke-linecap="round" stroke-linejoin="round" transform="translate(224.719382, 90.719382) rotate(45.000000) translate(-224.719382, -90.719382) " points="224.719382 92.1216814 222.089382 93.3493819 223.317082 90.7193818 222.089382 88.0893817 224.719382 89.3170822 227.349382 88.0893817 226.121681 90.7193818 227.349382 93.3493819"></polygon>
            <polygon id="Star" stroke="#C2E8FF" stroke-width="3" stroke-linecap="round" stroke-linejoin="round" transform="translate(183.719382, 97.719382) rotate(45.000000) translate(-183.719382, -97.719382) " points="183.719382 99.1216814 181.089382 100.349382 182.317082 97.7193818 181.089382 95.0893817 183.719382 96.3170822 186.349382 95.0893817 185.121681 97.7193818 186.349382 100.349382"></polygon>
            <polygon id="Star" stroke="#C2E8FF" stroke-width="3" stroke-linecap="round" stroke-linejoin="round" transform="translate(99.719382, 94.719382) rotate(45.000000) translate(-99.719382, -94.719382) " points="99.7193818 96.1216814 97.0893817 97.3493819 98.3170822 94.7193818 97.0893817 92.0893817 99.7193818 93.3170822 102.349382 92.0893817 101.121681 94.7193818 102.349382 97.3493819"></polygon>
            <polygon id="Star" stroke="#C2E8FF" stroke-width="3" stroke-linecap="round" stroke-linejoin="round" transform="translate(155.719382, 59.719382) rotate(45.000000) translate(-155.719382, -59.719382) " points="155.719382 61.1216814 153.089382 62.3493819 154.317082 59.7193818 153.089382 57.0893817 155.719382 58.3170822 158.349382 57.0893817 157.121681 59.7193818 158.349382 62.3493819"></polygon>
            <g id="Group-22" transform="translate(61.000000, 128.000000)">
                <g id="Group-14" transform="translate(26.000000, 19.000000) rotate(-25.000000) translate(-26.000000, -19.000000) translate(2.000000, 10.000000)">
                    <path d="M9.44744117,4.89614401 L45.4474412,3.00140717 C45.9989626,2.97237973 46.4695904,3.39594477 46.4986178,3.94746617 C46.4995391,3.96497064 46.5,3.9824963 46.5,4.000025 L46.5,13.8919937 C46.5,14.4442784 46.0522847,14.8919937 45.5,14.8919937 C45.4824713,14.8919937 45.4649456,14.8915328 45.4474412,14.8906115 L9.44744117,12.9958747 C8.91631646,12.9679207 8.5,12.5291167 8.5,11.9972568 L8.5,5.89476184 C8.5,5.36290202 8.91631646,4.92409795 9.44744117,4.89614401 Z" id="Rectangle-9" fill="#FFFFFF"></path>
                    <path d="M14.8831588,4.84210831 L29.8831588,3.07740243 C30.4316607,3.01287279 30.928621,3.40520985 30.9931506,3.95371178 C30.997713,3.99249174 31,4.03150562 31,4.07055303 L31,13.8214656 C31,14.3737504 30.5522847,14.8214656 30,14.8214656 C29.9609526,14.8214656 29.9219387,14.8191786 29.8831588,14.8146162 L14.8831588,13.0499104 C14.3795458,12.9906618 14,12.5638459 14,12.0567598 L14,5.83525891 C14,5.32817276 14.3795458,4.90135689 14.8831588,4.84210831 Z" id="Rectangle-9" fill="#C2E8FF"></path>
                    <path d="M9.44744117,4.89614401 L45.4474412,3.00140717 C45.9989626,2.97237973 46.4695904,3.39594477 46.4986178,3.94746617 C46.4995391,3.96497064 46.5,3.9824963 46.5,4.000025 L46.5,13.8919937 C46.5,14.4442784 46.0522847,14.8919937 45.5,14.8919937 C45.4824713,14.8919937 45.4649456,14.8915328 45.4474412,14.8906115 L9.44744117,12.9958747 C8.91631646,12.9679207 8.5,12.5291167 8.5,11.9972568 L8.5,5.89476184 C8.5,5.36290202 8.91631646,4.92409795 9.44744117,4.89614401 Z" id="Rectangle-9" stroke="#8CD3F8" stroke-width="3" stroke-linecap="round" stroke-linejoin="round"></path>
                    <rect id="Rectangle-10" stroke="#8CD3F8" stroke-width="3" fill="#FFFFFF" stroke-linecap="round" stroke-linejoin="round" x="2.46592583" y="8.75881905" width="6" height="1" rx="0.5"></rect>
                    <line x1="46.5" y1="0.77016129" x2="46.5" y2="17.4801604" id="CamperDarkBlueLine3" stroke="#8CD3F8" stroke-width="3" stroke-linecap="round"></line>
                    <line x1="1.46592583" y1="5.02898034" x2="1.46592583" y2="13.7389804" id="CamperDarkBlueLine3" stroke="#8CD3F8" stroke-width="3" stroke-linecap="round"></line>
                </g>
                <g id="Group-21" transform="translate(21.000000, 23.000000)" stroke="#8CD3F8" stroke-linecap="round" stroke-linejoin="round" stroke-width="3">
                    <line x1="7.5" y1="0.787597656" x2="7.5" y2="6.40759754" id="Path-21"></line>
                    <line x1="7.5" y1="6.78759766" x2="0.5" y2="18.4075975" id="Path-21"></line>
                    <line x1="14.5" y1="6.78759766" x2="7.5" y2="18.4075975" id="Path-21" transform="translate(11.000000, 12.597598) scale(-1, 1) translate(-11.000000, -12.597598) "></line>
                    <line x1="3.5" y1="6.5" x2="11.5" y2="6.5" id="Path-21"></line>
                </g>
            </g>
        </g>
    </g>
</svg>