<?xml version="1.0" encoding="UTF-8"?>
<svg width="214px" height="129px" viewBox="0 0 214 129" version="1.1" xmlns="http://www.w3.org/2000/svg" xmlns:xlink="http://www.w3.org/1999/xlink">
    <!-- Generator: Sketch 59.1 (86144) - https://sketch.com -->
    <title>WalkthroughNotAvailable</title>
    <desc>Created with Sketch.</desc>
    <g id="Symbols" stroke="none" stroke-width="1" fill="none" fill-rule="evenodd">
        <g id="WalkthroughNotAvailable" transform="translate(-44.000000, -36.000000)">
            <rect id="Rectangle-" fill-opacity="0" fill="#D8D8D8" x="0" y="0" width="300" height="200"></rect>
            <g id="Mountain" transform="translate(181.000000, 125.500000) scale(-1, 1) translate(-181.000000, -125.500000) translate(105.500000, 88.000000)">
                <g id="MountainLightBlue">
                    <path d="M108.339202,74.8530273 C126.10242,70.3201497 137.692687,67.3264974 143.110005,65.8720703 C147.693232,64.6415776 149.959833,63.6846456 150.329732,62.3066406 C150.615656,61.2414685 150.287977,59.7592032 145.765767,58.7412109 C137.345845,57.1875 116.443013,55.0947266 111.145507,54.3032227 C105.848002,53.5117187 87.2237746,52.215332 87.2656959,46.6538086 C87.307759,41.0922852 101.228169,39.6508789 106.638671,38.8173828 C112.049173,37.9838867 113.455078,36.5698242 113.455078,35.043457 C113.455078,34.0258789 110.913947,32.6936849 105.831685,31.046875" id="Road2" stroke="#C2E8FF" stroke-width="3" stroke-linecap="round" stroke-linejoin="round" transform="translate(118.835441, 52.949951) scale(-1, 1) translate(-118.835441, -52.949951) "></path>
                    <path d="M6.15610763,30.75 C12.1534086,31.6070964 15.7565987,32.434082 16.9656779,33.230957 C18.7792969,34.4262695 19.4121094,37.0615234 16.362793,38.3012695 C14.3299154,39.1277669 11.8579102,39.9404297 8.94677734,40.7392578 C6.66813151,41.6982422 5.52880859,42.7330729 5.52880859,43.84375 C5.52880859,45.5097656 6.98423263,46.4350586 10.9603069,47.0625 C14.9363811,47.6899414 44.8626506,50.2714844 47.1614787,50.378418 C49.4603069,50.4853516 87.0086467,53.4526367 100.868998,57.2358398 C114.72935,61.019043 120.590047,65.1503906 121.360697,68.3525391 C121.874464,70.4873047 121.256999,72.2416992 119.508301,73.6157227" id="Road1" stroke="#C2E8FF" stroke-width="3" stroke-linecap="round" stroke-linejoin="round" transform="translate(63.532254, 52.182861) scale(-1, 1) translate(-63.532254, -52.182861) "></path>
                    <line x1="0.482421875" y1="30.5" x2="120.964844" y2="30.5" id="MountianHorizonLine" stroke="#C2E8FF" stroke-width="3" stroke-linecap="round"></line>
                    <polyline id="MountainLine4" stroke="#C2E8FF" stroke-width="3" stroke-linecap="round" stroke-linejoin="round" points="20 30.5 57 0 85.75 22.5"></polyline>
                    <polyline id="MountainLine1" stroke="#C2E8FF" stroke-width="3" stroke-linecap="round" stroke-linejoin="round" points="77.5 15.4716981 86 8 113.5 30"></polyline>
                    <path d="M115.931267,22.0885584 L117.233235,28.2148438 L117.233235,28.2148438 L114.271223,30.5009179 L111.803711,30.6832006 L113.983553,22.0515832 C114.118782,21.5161101 114.662493,21.1916482 115.197967,21.3268774 C115.56761,21.4202278 115.852013,21.715638 115.931267,22.0885584 Z" id="MountainTree1" fill="#C2E8FF" transform="translate(114.518473, 25.135754) scale(-1, 1) translate(-114.518473, -25.135754) "></path>
                </g>
            </g>
            <g id="Stump" transform="translate(62.500000, 65.000000)">
                <g id="StumpLightBlue" transform="translate(14.500000, 0.000000)" fill="#C2E8FF">
                    <path d="M12.25,60.7573593 L12.25,2.5 L3.75,0 L3.75,83.8359375 C3.74381232,84.8003235 3.43678775,85.7512767 3,86.688797 C2.56321225,87.6263173 1.45357016,88.813385 0,89.75 L16,89.75 C14.5941729,88.8470154 13.8260995,87.7985992 13.25,87.1047516 C12.6739005,86.4109039 12.3586405,85.4723409 12.25,84.2890625 L12.25,69.1837171 C12.3624719,69.109871 12.2191349,69.0235058 12.3180195,68.9246212 L22.9246212,58.3180195 C23.7056698,57.5369709 23.7056698,56.2706409 22.9246212,55.4895924 L21.5104076,54.0753788 C20.7293591,53.2943302 19.4630291,53.2943302 18.6819805,54.0753788 L12.25,60.7573593 Z" id="Stump"></path>
                </g>
                <g id="StumpWhite" transform="translate(18.000000, 1.000000)" fill="#FFFFFF">
                    <polygon id="StumpHighlight" points="0.783813477 0.314697266 8.47387695 2.84802246 8.47387695 5.51696777 0.0852050781 3.06298828"></polygon>
                </g>
                <g id="StumpDarkBlue">
                    <path d="M27,60.7573593 L27,2.5 L18,0 L18,83.8359375 C17.9938123,84.8003235 17.9367877,85.7512767 17.5,86.688797 C17.0632123,87.6263173 15.9535702,89.563385 14.5,90.5 L30.5,90.5 C29.0941729,89.5970154 28.7925302,88.2830811 28.2164307,87.5892334 C27.6403311,86.8953857 27.1086405,85.4723409 27,84.2890625 L27,69.1837171 C27.0749813,69.1344864 30.549855,65.5125872 37.4246212,58.3180195 C38.2056698,57.5369709 38.2056698,56.2706409 37.4246212,55.4895924 L36.0104076,54.0753788 C35.2293591,53.2943302 33.9630291,53.2943302 33.1819805,54.0753788 L27,60.7573593 Z" id="StumpOutline" stroke="#8CD3F8" stroke-width="3" stroke-linecap="round" stroke-linejoin="round"></path>
                    <line x1="6.5" y1="90.5" x2="42.5" y2="90.5" id="StumpHorizonLine2" stroke="#8CD3F8" stroke-width="3" stroke-linecap="round"></line>
                    <line x1="0" y1="90.5" x2="1.5" y2="90.5" id="StumpHorizonLine1" stroke="#8CD3F8" stroke-width="3" stroke-linecap="round"></line>
                    <path d="M35.4784262,82.2939344 L37,89.5 L37,89.5 L32,89.5 L33.5215738,82.2939344 C33.6356738,81.7535645 34.1662266,81.4080046 34.7065965,81.5221047 C35.0939813,81.6039017 35.3966292,81.9065496 35.4784262,82.2939344 Z" id="Grass3" fill="#8CD3F8"></path>
                    <path d="M31.4744207,84.8851961 L33,91.5 L33,91.5 L28,91.5 L29.5255793,84.8851961 C29.6496952,84.3470384 30.186574,84.0113913 30.7247317,84.1355071 C31.0974375,84.2214647 31.3884631,84.5124903 31.4744207,84.8851961 Z" id="Grass2" fill="#8CD3F8"></path>
                    <path d="M13.8191489,80.8672677 L15.5,89.5 L15.5,89.5 L9.5,89.5 L11.8727842,80.7953918 C12.0180315,80.2625488 12.5677324,79.9483405 13.1005754,80.0935878 C13.4678297,80.1936975 13.7463991,80.4936299 13.8191489,80.8672677 Z" id="Grass1" fill="#8CD3F8"></path>
                </g>
            </g>
            <g id="Sign" transform="translate(45.500000, 73.500000)">
                <g id="SignLightBlue" fill="#C2E8FF">
                    <path d="M4,0 L74,0 C76.209139,-4.05812251e-16 78,1.790861 78,4 L78,44 C78,46.209139 76.209139,48 74,48 L4,48 C1.790861,48 2.705415e-16,46.209139 0,44 L0,37.9677734 L0,37.9677734 L3,36.800293 L0,35.9448242 L0,33.6118164 L5,31.9536133 L0,29.6064453 L0,4 C-2.705415e-16,1.790861 1.790861,4.05812251e-16 4,0 Z" id="Rectangle-3"></path>
                </g>
                <g id="SignDarkBlue">
                    <polygon id="Rectangle-3" stroke="#8CD3F8" stroke-width="3" stroke-linecap="round" stroke-linejoin="round" points="0 0 78 0 78 48 0 48 0 38.2177734 3.25 37.050293 0 36.1948242 0 33.8618164 5.25 32.2036133 0 29.8564453"></polygon>
                    <line x1="77.5" y1="16" x2="0" y2="16" id="SignLine2" stroke="#8CD3F8" stroke-width="3" stroke-linejoin="round"></line>
                    <line x1="77.5" y1="32" x2="4.5" y2="32" id="SignLine1" stroke="#8CD3F8" stroke-width="3" stroke-linejoin="round"></line>
                    <circle id="Nail4" fill="#8CD3F8" cx="73" cy="5" r="1.5"></circle>
                    <circle id="Nail3" fill="#8CD3F8" cx="73" cy="43" r="1.5"></circle>
                    <circle id="Nail2" fill="#8CD3F8" cx="5" cy="5" r="1.5"></circle>
                    <circle id="Nail1" fill="#8CD3F8" cx="5" cy="43" r="1.5"></circle>
                </g>
                <g id="SignWhite" transform="translate(1.000000, 1.000000)" fill="#FFFFFF">
                    <path d="M27.9321181,16.4676521 C26.7099765,18.3474033 26,20.5907897 26,23 C26,29.627417 31.372583,35 38,35 C40.4092103,35 42.6525967,34.2900235 44.5323479,33.0678819 L27.9321181,16.4676521 L27.9321181,16.4676521 Z M31.4676521,12.9321181 L48.0678819,29.5323479 C49.2900235,27.6525967 50,25.4092103 50,23 C50,16.372583 44.627417,11 38,11 C35.5907897,11 33.3474033,11.7099765 31.4676521,12.9321181 L31.4676521,12.9321181 Z M38,40 C28.6111593,40 21,32.3888407 21,23 C21,13.6111593 28.6111593,6 38,6 C47.3888407,6 55,13.6111593 55,23 C55,32.3888407 47.3888407,40 38,40 Z" id="NoNo"></path>
                    <rect id="SignHighlight" x="0.5" y="0.5" width="75" height="2"></rect>
                </g>
            </g>
            <g id="Branch" transform="translate(85.500000, 111.500000)" fill="#C2E8FF">
                <g id="BranchDarkBlue" transform="translate(6.500000, 0.000000)" stroke="#8CD3F8" stroke-linecap="round" stroke-linejoin="round" stroke-width="3">
                    <path d="M1.52164887,9.91305871 L1.38202962,17.9118403 L15.1194984,5.41658685 C15.900547,4.63553827 15.900547,3.36920831 15.1194984,2.58815973 L13.7052848,1.17394616 C12.9242362,0.39289758 11.6579063,0.39289758 10.8768577,1.17394616 L1.52164887,9.91305871 Z" id="Stump" transform="translate(8.543657, 9.250000) rotate(-3.000000) translate(-8.543657, -9.250000) "></path>
                </g>
                <g id="BranchLightBlue" transform="translate(0.000000, 8.500000)">
                    <path d="M10.9632568,0.981079102 L0.513305664,11.0551758 C1.13130697,13.2156576 1.47530111,14.2802327 1.54528809,14.2489014 C1.61527507,14.21757 2.35205078,13.5616048 3.75561523,12.2810059 L11.9383545,4.01525879 L10.9632568,0.981079102 Z" id="Path-2"></path>
                </g>
            </g>
            <g id="Tree2" transform="translate(197.750000, 102.250000)">
                <g id="Tree2White" transform="translate(1.000000, 0.000000)" fill="#FFFFFF">
                    <path d="M10.4209988,4.29236217 L16.259296,24.443436 C16.5666778,25.5043744 15.9557995,26.613617 14.8948612,26.9209988 C14.7139843,26.9734036 14.5266126,27 14.3382972,27 L2.6617028,27 C1.5571333,27 0.661702805,26.1045695 0.661702805,25 C0.661702805,24.8116846 0.688299176,24.6243129 0.74070397,24.443436 L6.57900117,4.29236217 C6.88638297,3.23142381 7.99562563,2.62054553 9.05656399,2.92792733 C9.71521023,3.11875451 10.2301717,3.63371594 10.4209988,4.29236217 Z" id="Tree2WhiteBkgd"></path>
                </g>
                <g id="Tree2LightBlue" stroke="#C2E8FF" stroke-linecap="round" stroke-linejoin="round" stroke-width="3">
                    <polygon id="Tree2LightBlueOutline1" points="9.75 0.161971831 18.75 26.25 0.75 26.25"></polygon>
                    <path d="M9.75,2.34765625 C9.75,21.5228147 9.75,31.323596 9.75,31.75 C9.75,31.323596 9.75,21.5228147 9.75,2.34765625 Z" id="Tree2LightBlueLine2"></path>
                    <path d="M10.5,14.6619718 C13.1666667,17.8925806 14.5,19.5592472 14.5,19.6619718 C14.5,19.5592472 13.1666667,17.8925806 10.5,14.6619718 Z" id="Tree2LightBlueLine1" transform="translate(12.500000, 17.161972) scale(-1, 1) translate(-12.500000, -17.161972) "></path>
                </g>
            </g>
            <g id="Tree1" transform="translate(212.000000, 85.750000)">
                <g id="Tree1White" transform="translate(0.500000, 0.000000)" fill="#FFFFFF">
                    <path d="M12.8239437,0 L25.0550983,40.9273253 C25.3713779,41.9856452 24.7698353,43.0999782 23.7115153,43.4162577 C23.5256938,43.4717906 23.3327828,43.5 23.1388406,43.5 L2.5090467,43.5 C1.40447721,43.5 0.509046705,42.6045695 0.509046705,41.5 C0.509046705,41.3060578 0.537256095,41.1131469 0.592788981,40.9273253 L12.8239437,0 L12.8239437,0 Z" id="Tree1WhiteBkgd"></path>
                </g>
                <g id="Tree1LightBlue" stroke="#C2E8FF" stroke-linecap="round" stroke-linejoin="round" stroke-width="3">
                    <polygon id="Tree1LightBlueOutine" points="13.5 0 27.25 42.75 0.25 42.75"></polygon>
                    <path d="M13.5,1.79321289 C13.5,32.0130517 13.5,47.4986474 13.5,48.25 C13.5,47.4986474 13.5,32.0130517 13.5,1.79321289 Z" id="Tree1LightBlueLine3"></path>
                    <path d="M7.82394366,23 L13.3239437,27.5 C13.3239437,27.3726794 11.4906103,25.8726794 7.82394366,23 Z" id="Tree1LightBlueLine2"></path>
                    <path d="M13.8239437,34 C18.4906103,28.539346 20.8239437,25.8726794 20.8239437,26 C20.8239437,25.8726794 18.4906103,28.539346 13.8239437,34 Z" id="Tree1LightBlueLine1"></path>
                </g>
            </g>
            <g id="Cloud1" transform="translate(86.000000, 37.748815)" stroke="#C2E8FF" stroke-linecap="round" stroke-width="3">
                <g id="Cloud1LightBlue">
                    <path d="M22,8.79146919 L31.5,8.79146919 C31.1394857,6.06480614 32.0407715,3.78378292 34.2038574,1.94839955 C36.6877441,-0.0982417247 39.6367188,0.360587604 41.220459,1.06679965 C42.8041992,1.7730117 43.9803467,2.74328671 44.7956543,4.5741966 C45.1411133,5.34508018 45.3758952,5.99728321 45.5,6.53080569" id="Cloud1LightBlueLine4"></path>
                    <path d="M41.5,10.2985782 C42.0279134,8.46301559 43.1113688,7.26289664 44.7503662,6.69822136 C47.2088623,5.85120844 49.5400391,6.97920986 50.4711914,8.11420227 C51.4023438,9.24919468 51.6975098,10.1609662 51.873291,11.1124759 C51.9904785,11.7468158 52.0327148,12.4802559 52,13.3127962 L54.081543,13.3127962 C56.0183919,13.8295019 56.9937985,14.9811653 57.0077626,16.7677864 C57.0322678,19.9575033 54.6954577,20.7511848 53.5,20.7511848 L14,20.7511848" id="Cloud1LightBlueLine3"></path>
                    <line x1="9" y1="14.7511848" x2="41.5002493" y2="14.7511848" id="Cloud1LightBlueLine2"></line>
                    <line x1="0" y1="14.7511848" x2="4" y2="14.7511848" id="Cloud1LightBlueLine1"></line>
                </g>
            </g>
            <g id="Cloud2" transform="translate(157.000000, 59.748815)" stroke="#C2E8FF" stroke-linecap="round" stroke-width="3">
                <g id="Cloud2LightBlue">
                    <path d="M22,8.79146919 L31.5,8.79146919 C31.1394857,6.06480614 32.0407715,3.78378292 34.2038574,1.94839955 C36.6877441,-0.0982417247 39.6367188,0.360587604 41.220459,1.06679965 C42.8041992,1.7730117 43.9803467,2.74328671 44.7956543,4.5741966 C45.1411133,5.34508018 45.3758952,5.99728321 45.5,6.53080569" id="Cloud2LightBlueLine4"></path>
                    <path d="M41.5,10.2985782 C42.0279134,8.46301559 43.1113688,7.26289664 44.7503662,6.69822136 C47.2088623,5.85120844 49.5400391,6.97920986 50.4711914,8.11420227 C51.4023438,9.24919468 51.6975098,10.1609662 51.873291,11.1124759 C51.9904785,11.7468158 52.0327148,12.4802559 52,13.3127962 L54.081543,13.3127962 C56.0183919,13.8295019 56.9937985,14.9811653 57.0077626,16.7677864 C57.0322678,19.9575033 54.6954577,20.7511848 53.5,20.7511848 L14,20.7511848" id="Cloud2LightBlueLine3"></path>
                    <line x1="9" y1="14.7511848" x2="41.5002493" y2="14.7511848" id="Cloud2LightBlueLine2"></line>
                    <line x1="0" y1="14.7511848" x2="4" y2="14.7511848" id="Cloud2LightBlueLine1"></line>
                </g>
            </g>
        </g>
    </g>
</svg>